<?xml version="1.0" standalone="no"?>
<!DOCTYPE svg PUBLIC "-//W3C//DTD SVG 20010904//EN"
 "http://www.w3.org/TR/2001/REC-SVG-20010904/DTD/svg10.dtd">
<svg version="1.0" xmlns="http://www.w3.org/2000/svg"
 width="794.000000pt" height="794.000000pt" viewBox="0 0 794.000000 794.000000"
 preserveAspectRatio="xMidYMid meet">
<metadata>
Created by potrace 1.16, written by Peter Selinger 2001-2019
</metadata>
<g transform="translate(0.000000,794.000000) scale(0.100000,-0.100000)"
fill="#000000" stroke="none">
<path d="M3740 7917 c0 -2 18 -46 41 -98 99 -227 114 -531 44 -880 -21 -107
-50 -198 -59 -188 -2 2 -7 69 -10 148 -4 80 -9 147 -12 150 -3 3 -3 -71 1
-165 7 -167 4 -224 -14 -224 -5 0 -21 28 -35 63 -64 147 -182 304 -376 498
-145 145 -288 246 -470 333 -265 125 -500 172 -736 147 -148 -15 -431 -92
-449 -121 -3 -4 30 -27 72 -50 114 -62 201 -129 297 -230 176 -186 356 -480
456 -746 44 -118 92 -284 82 -284 -3 0 -63 24 -132 54 -225 98 -378 132 -550
123 -250 -14 -533 -95 -735 -209 -105 -60 -245 -150 -245 -159 0 -4 42 -21 93
-39 382 -135 746 -411 1061 -805 98 -122 199 -265 193 -271 -3 -3 -23 6 -44
19 -63 40 -160 86 -255 123 -94 36 -247 78 -255 71 -2 -3 20 -10 49 -17 143
-34 390 -139 495 -211 39 -27 90 -86 81 -94 -2 -2 -43 -9 -91 -15 -171 -21
-276 -66 -438 -186 l-104 -78 155 -13 c150 -13 323 -49 410 -86 l35 -14 -30
-7 c-103 -24 -199 -60 -237 -89 -70 -53 -134 -146 -163 -238 -14 -44 -25 -90
-24 -102 0 -12 9 10 19 48 26 100 36 121 85 190 54 76 127 127 220 154 128 37
161 37 240 1 116 -53 120 -58 135 -147 7 -43 21 -99 31 -125 14 -36 16 -54 9
-74 -27 -70 9 -164 101 -267 37 -41 49 -63 49 -87 0 -56 31 -174 65 -245 18
-38 32 -72 30 -74 -7 -6 -95 19 -177 50 -163 63 -398 265 -482 414 -15 26 -16
27 -10 5 8 -31 65 -109 139 -189 l57 -61 -29 -11 c-15 -7 -62 -12 -103 -13
-139 -1 -294 65 -348 147 -24 36 -28 53 -33 151 l-6 111 -2 -90 c-1 -59 -6
-96 -16 -109 -9 -12 -11 -26 -6 -40 5 -11 8 -65 7 -119 l-1 -98 -51 -23 c-28
-13 -60 -36 -73 -52 -63 -82 -81 -108 -81 -118 0 -6 9 3 20 21 22 37 63 61
123 73 31 6 35 8 15 9 -15 1 -39 -4 -54 -9 -15 -6 -29 -8 -32 -6 -10 11 61 66
99 77 38 12 39 11 80 -30 53 -55 125 -88 236 -107 105 -19 245 -14 292 11 30
15 33 15 60 -4 44 -32 91 -129 91 -190 0 -45 -3 -51 -20 -51 -25 0 -37 -25
-21 -44 9 -11 8 -15 -5 -20 -31 -12 -42 -5 -58 39 -32 84 -102 118 -194 95
-72 -17 -141 -66 -185 -133 -32 -48 -43 -57 -68 -57 -29 0 -39 13 -19 25 17
11 11 37 -10 42 -36 9 -22 53 37 115 39 40 37 59 -5 57 -24 -2 -24 -2 -4 -6
30 -6 28 -24 -7 -57 -59 -56 -68 -142 -20 -178 33 -25 68 -11 94 38 37 70 134
137 213 150 58 9 125 -24 147 -74 34 -77 48 -86 91 -57 76 50 62 191 -30 293
l-37 40 23 49 c12 26 23 49 24 51 1 2 31 -13 67 -33 72 -39 219 -94 255 -95
29 0 62 -34 62 -64 0 -14 8 -31 18 -38 11 -7 24 -30 31 -50 11 -34 10 -40 -15
-79 -69 -109 -66 -128 32 -230 l66 -68 -10 -58 c-5 -32 -6 -65 -2 -73 5 -9 35
-28 68 -44 57 -27 60 -31 66 -72 5 -37 1 -51 -26 -94 -29 -47 -33 -50 -74 -50
-36 0 -45 -4 -62 -31 l-20 -32 -218 -2 c-121 -2 -230 -6 -244 -8 -14 -3 -59
-11 -100 -17 -262 -42 -465 -127 -630 -264 -100 -84 -181 -210 -215 -332 -28
-103 -31 -290 -6 -431 24 -146 43 -187 105 -231 l47 -34 -7 -58 c-10 -92 0
-127 44 -149 47 -24 151 -45 192 -39 16 3 30 2 30 -1 0 -11 -165 -88 -215
-100 -27 -6 -90 -32 -140 -56 -228 -114 -313 -230 -206 -284 46 -24 173 -48
301 -56 210 -14 752 40 913 92 57 18 63 30 66 127 2 66 0 73 -58 186 l-61 118
54 56 c52 53 94 127 130 227 13 35 23 47 49 56 41 15 266 21 275 8 4 -6 46
-29 94 -53 72 -36 103 -59 180 -138 51 -51 95 -94 98 -94 3 0 4 77 2 171 l-4
172 28 -8 c48 -12 145 -26 224 -31 86 -5 147 -21 154 -40 5 -14 -10 -189 -20
-229 l-6 -26 67 26 c78 29 199 93 267 141 l48 34 118 -34 c162 -47 259 -66
337 -66 60 0 66 -2 75 -24 5 -13 16 -28 25 -33 11 -6 18 -28 21 -64 2 -30 6
-68 9 -85 5 -31 42 -72 83 -93 22 -11 22 -16 16 -86 l-7 -74 39 -10 c69 -19
70 -21 45 -93 -35 -99 -71 -239 -70 -278 0 -19 3 -30 5 -24 3 8 24 3 64 -13
44 -17 130 -33 326 -59 147 -19 274 -34 282 -32 9 2 -108 20 -259 40 -252 34
-375 60 -401 86 -11 11 28 202 42 202 4 0 13 -6 19 -14 26 -31 265 -107 331
-105 14 0 -22 11 -80 25 -176 40 -260 76 -260 110 0 30 33 124 43 124 6 0 31
-13 56 -30 69 -44 158 -64 287 -64 l111 -1 93 46 93 46 60 -41 c72 -49 81 -66
37 -66 -45 0 -172 -55 -202 -88 -13 -15 -32 -40 -42 -55 -15 -25 -22 -28 -49
-23 -18 3 -50 8 -72 12 l-40 6 -3 -40 c-1 -23 3 -43 10 -49 7 -5 66 -31 130
-59 65 -27 118 -54 118 -60 0 -40 396 -27 529 17 31 10 58 16 60 13 21 -21
-81 -84 -139 -85 -19 0 -53 -4 -75 -9 -33 -8 -27 -8 30 -4 87 6 160 29 180 57
8 12 15 42 15 68 0 59 -19 79 -130 143 -47 27 -116 69 -153 95 -38 25 -79 53
-92 61 -52 34 -115 84 -115 92 0 4 22 19 49 32 75 39 255 161 312 214 l51 47
5 125 c5 111 8 129 29 161 14 20 39 69 56 110 53 124 43 266 -31 449 -45 109
-89 176 -176 269 -142 150 -295 255 -452 311 l-62 22 44 67 c25 36 50 75 58
85 13 18 22 12 156 -105 150 -131 173 -146 213 -136 85 22 238 223 238 315 0
38 -5 45 -63 97 -63 57 -64 58 -60 104 4 38 0 53 -23 88 -15 23 -39 47 -53 53
-22 10 -20 6 12 -25 41 -39 57 -71 57 -114 0 -37 -34 -79 -67 -83 -14 -2 -31
-12 -37 -23 -6 -11 -12 -22 -13 -24 -2 -2 -9 2 -18 9 -12 10 -14 25 -9 74 6
56 4 65 -17 89 -16 18 -40 30 -71 36 l-47 8 -10 -49 c-12 -53 -32 -98 -56
-121 -12 -12 -21 -13 -49 -5 -42 13 -70 -3 -61 -33 8 -25 -11 -24 -25 0 -16
31 -12 54 15 91 29 39 31 66 10 118 -17 40 -92 122 -112 122 -35 0 -64 -25
-74 -64 -16 -63 -35 -86 -69 -86 -42 0 -62 35 -67 118 -3 59 -1 73 24 116 33
58 58 78 137 110 l60 24 50 -25 c162 -82 287 -87 485 -19 64 22 77 24 90 12 9
-7 32 -19 52 -25 68 -22 99 -67 99 -145 0 -37 -22 -90 -32 -76 -2 3 -8 14 -14
25 -16 30 -93 85 -117 85 -16 0 -11 -5 18 -19 72 -34 105 -79 105 -144 0 -38
-7 -50 -37 -66 -25 -13 -30 -36 -10 -44 9 -4 8 -8 -3 -16 -9 -6 -10 -11 -3
-11 23 0 52 52 59 108 4 31 15 68 25 81 25 31 25 114 1 161 -11 23 -32 43 -62
57 -83 41 -84 42 -66 62 31 34 81 236 77 311 -1 8 0 42 1 75 7 213 -31 375
-117 503 -39 57 -37 77 12 115 12 10 23 27 23 38 0 12 12 24 35 33 19 8 35 20
35 25 0 6 8 11 17 11 9 0 25 7 35 17 42 38 120 73 166 73 127 2 227 -16 294
-51 10 -5 24 -9 31 -9 8 0 19 -11 25 -24 6 -13 33 -36 60 -51 56 -31 92 -88
92 -149 0 -20 4 -44 9 -54 6 -9 12 -29 16 -44 4 -20 12 -28 26 -28 12 0 23 -8
26 -19 2 -10 20 -25 39 -34 19 -9 34 -23 34 -31 0 -21 27 -40 33 -24 4 9 8 10
14 2 4 -6 15 -11 23 -12 8 0 25 -4 37 -7 18 -6 23 -1 34 29 8 22 20 36 33 38
12 2 22 12 24 23 2 11 10 27 18 36 8 9 12 24 8 33 -3 9 -1 16 5 16 18 0 14
162 -4 186 -8 10 -15 29 -15 41 0 12 -4 25 -10 28 -5 3 -10 15 -10 25 0 11
-20 56 -44 102 -32 61 -55 92 -87 115 -24 18 -55 43 -69 56 -14 13 -33 27 -42
30 -10 4 -18 11 -18 16 0 18 -138 98 -205 118 -64 20 -89 23 -205 24 -129 2
-230 -14 -298 -46 -161 -76 -188 -91 -221 -120 -20 -18 -61 -48 -91 -67 -72
-46 -111 -92 -156 -184 l-37 -76 -36 6 c-55 9 -387 19 -380 12 3 -3 82 -8 175
-10 182 -4 231 -13 361 -67 104 -44 162 -103 218 -221 58 -124 79 -228 73
-374 -3 -75 -9 -118 -18 -129 -26 -32 -165 -92 -275 -121 -136 -34 -269 -37
-355 -8 -53 19 -55 20 -72 76 -9 31 -21 94 -26 140 l-9 83 -2 -66 -1 -66 -37
-16 c-71 -30 -128 -40 -246 -42 -64 -1 -120 -4 -122 -7 -3 -2 3 -5 13 -5 9 1
45 0 79 -1 l63 -2 -19 -48 c-25 -62 -84 -169 -115 -207 -22 -27 -26 -28 -40
-15 -9 9 -32 54 -51 100 -112 275 -47 757 126 931 70 72 98 83 194 77 44 -3
72 -3 62 -1 -36 9 268 168 505 264 60 23 105 46 100 50 -4 4 -95 22 -202 40
-107 17 -199 35 -204 39 -19 18 143 95 349 167 100 34 587 157 732 183 68 13
120 26 118 31 -8 12 -198 84 -326 123 -203 61 -538 115 -642 102 -28 -3 -46
-2 -41 3 14 13 325 135 434 171 142 46 295 85 458 115 17 4 32 10 32 14 0 35
-345 156 -590 207 -103 22 -403 30 -527 14 -81 -10 -294 -61 -355 -85 -35 -14
-18 16 27 48 129 91 265 153 440 198 61 15 102 28 92 29 -27 0 -166 -37 -249
-66 -92 -33 -177 -76 -250 -126 -77 -52 -88 -55 -88 -29 0 38 -30 174 -57 254
-45 139 -162 285 -305 380 -31 20 -99 58 -150 82 -86 42 -126 53 -289 80 l-37
5 -5 288 c-4 242 -8 301 -26 375 -27 116 -78 239 -136 329 -59 90 -405 437
-405 405z m-503 -2371 c-17 -43 -49 -157 -73 -261 -27 -113 -28 -133 -28 -331
0 -116 4 -216 8 -223 5 -7 27 27 57 85 97 189 221 340 387 473 120 95 236 174
240 162 7 -21 -110 -223 -191 -331 -77 -103 -161 -205 -221 -270 -51 -55 -53
-58 -12 -20 126 118 359 433 420 568 10 23 22 42 26 42 10 0 -16 -172 -39
-260 -36 -134 -137 -364 -209 -475 -31 -48 -64 -79 -164 -152 -68 -51 -130
-99 -137 -107 -8 -9 -20 -16 -29 -16 -12 0 -14 10 -9 58 5 52 4 53 -5 19 -6
-22 -7 -57 -2 -85 11 -67 11 -67 -16 -67 -20 0 -26 6 -31 35 -4 19 -6 55 -4
80 l4 45 -9 -45 c-6 -25 -8 -57 -4 -72 3 -16 2 -28 -3 -28 -19 0 -33 26 -33
61 0 21 -3 39 -8 41 -7 3 -57 196 -137 532 -19 81 -42 158 -50 169 -8 12 -15
29 -15 37 0 29 101 170 187 260 80 84 112 109 100 76z m-454 -308 c-11 -62
-54 -195 -49 -153 4 29 2 35 -4 23 -6 -9 -12 -56 -14 -105 -2 -48 -1 -64 1
-35 4 56 23 73 23 20 0 -32 0 -32 16 -10 22 32 31 27 39 -20 4 -24 11 -51 17
-61 7 -13 1 -26 -21 -55 -16 -20 -37 -55 -45 -77 -20 -51 -36 -126 -26 -120 4
2 10 23 14 46 11 70 76 182 100 173 7 -3 16 2 19 10 8 19 66 21 90 4 9 -7 41
-83 70 -168 109 -311 112 -317 167 -345 59 -30 83 -31 101 -6 21 28 339 222
461 282 l108 52 66 -33 c76 -37 119 -93 130 -169 3 -25 11 -53 16 -61 6 -10 7
-5 3 18 -3 17 -7 47 -10 65 l-6 32 15 -25 c9 -14 15 -20 15 -15 0 34 -91 131
-153 162 -58 29 -50 40 35 50 l52 6 -7 -26 -6 -27 36 18 37 17 47 -53 47 -53
48 70 c43 63 47 72 37 99 -10 29 -8 32 64 88 41 33 79 61 84 62 15 5 12 -79
-4 -133 -21 -67 -75 -144 -173 -246 -82 -85 -85 -89 -57 -89 35 0 121 22 152
39 12 6 22 8 22 3 0 -14 -83 -88 -119 -106 -17 -9 -31 -19 -31 -23 0 -9 160 6
208 20 34 10 50 23 77 64 56 84 182 173 244 173 129 0 194 -169 142 -372 -35
-134 -91 -231 -195 -333 -131 -130 -225 -173 -326 -152 -31 6 -42 2 -90 -34
-181 -136 -427 -237 -660 -269 l-65 -9 70 4 c202 14 470 121 663 266 50 38 55
40 88 29 21 -7 54 -9 76 -6 l41 7 -28 -38 c-61 -80 -118 -143 -132 -143 -7 0
-16 -6 -19 -13 -5 -14 -95 -90 -204 -174 -180 -137 -326 -228 -412 -259 -42
-15 -42 -14 -94 21 -72 50 -213 199 -246 261 l-28 52 113 -3 112 -3 -100 7
c-212 16 -383 80 -575 216 -145 102 -270 258 -270 337 0 15 11 57 25 94 30 80
58 212 53 251 -3 19 -6 9 -12 -32 -11 -86 -39 -190 -51 -189 -6 1 -19 28 -29
60 -37 114 -22 410 24 466 17 22 17 21 27 -37 7 -38 7 -69 1 -86 -5 -16 -8
-36 -5 -46 3 -13 5 -11 6 7 3 48 21 -2 22 -60 0 -35 3 -48 8 -36 8 21 -12 197
-34 287 -16 69 -8 79 40 50 38 -22 44 -15 26 32 -25 66 -33 213 -15 274 26 87
96 223 114 223 5 0 7 -15 3 -32z m1431 -155 c-9 -38 -40 -115 -65 -164 -18
-37 -23 -40 -47 -34 -15 4 -49 10 -75 14 l-48 6 113 102 c62 56 116 102 121
102 4 1 4 -11 1 -26z m720 -1182 c-30 -103 -41 -175 -50 -316 -6 -100 -10
-116 -40 -171 -19 -33 -34 -74 -34 -89 0 -16 20 -93 45 -172 38 -120 44 -147
34 -165 -23 -45 -123 -160 -181 -208 -62 -52 -85 -62 -73 -32 19 48 26 146 16
208 -32 179 -141 281 -312 292 -131 8 -245 -41 -313 -135 -46 -63 -66 -121
-73 -214 l-6 -76 -61 24 c-33 13 -67 27 -73 30 -7 3 -13 14 -13 24 0 10 -6 20
-12 21 -7 0 -18 2 -24 2 -6 1 -19 7 -28 15 -13 11 -20 11 -40 -2 -24 -16 -26
-15 -108 57 -159 139 -289 285 -345 386 -29 52 -51 96 -48 98 2 2 22 1 43 -3
37 -6 43 -12 86 -84 69 -117 255 -291 311 -291 30 0 198 87 281 145 208 147
426 326 479 394 77 99 15 -49 -105 -249 -34 -56 -60 -104 -57 -106 17 -17 223
177 329 311 139 175 133 169 99 100 -34 -71 -53 -135 -40 -135 5 0 9 5 9 11 0
30 114 266 138 287 34 28 185 133 188 129 1 -1 -8 -40 -22 -86z m-3094 -127
c0 -24 81 -104 130 -129 25 -12 64 -28 88 -35 l42 -13 0 -59 c0 -45 -5 -63
-20 -78 -31 -31 -62 -29 -130 5 -93 47 -141 128 -126 211 6 31 9 34 23 22 12
-9 10 -2 -6 29 -22 44 -28 78 -11 68 6 -3 10 -13 10 -21z m1100 -175 c60 -35
69 -45 75 -77 11 -58 73 -218 129 -331 50 -101 52 -105 104 -127 29 -13 55
-24 58 -24 3 0 -15 26 -39 58 -85 110 -237 388 -237 433 0 18 2 18 33 3 25
-13 42 -36 77 -107 75 -152 115 -205 286 -376 l164 -163 -45 -40 c-59 -52 -59
-84 2 -102 18 -6 25 -1 38 23 8 17 27 38 40 47 22 14 28 15 43 3 31 -25 61
-39 86 -39 22 0 25 -5 31 -47 3 -27 7 -55 8 -63 2 -10 14 -15 42 -15 l40 0 -1
58 c-1 31 1 57 4 57 2 0 22 -5 44 -12 30 -9 44 -21 58 -49 11 -20 41 -55 67
-78 l48 -41 -55 0 c-121 -1 -166 -28 -221 -134 l-32 -61 -101 6 c-131 7 -156
21 -202 112 -69 135 -191 307 -219 307 -22 0 -19 -21 15 -92 32 -67 38 -106
18 -126 -19 -19 -37 -14 -106 29 -36 23 -93 54 -128 70 -69 30 -72 37 -55 113
l6 29 33 -27 c62 -53 31 -13 -73 95 -76 79 -105 116 -105 134 0 14 3 25 6 25
4 0 36 -28 73 -63 61 -57 141 -114 141 -100 0 3 -36 77 -79 164 -81 161 -92
197 -136 425 -15 83 -19 144 -9 144 3 0 36 -18 74 -41z m2454 -276 c-1 -97 -3
-108 -20 -111 -11 -1 -36 13 -56 32 -34 31 -38 40 -38 83 0 26 5 55 10 63 7
12 54 30 100 39 3 1 4 -47 4 -106z m-2109 -35 c15 -24 69 -85 118 -135 78 -80
89 -95 81 -113 -8 -19 -17 -13 -102 73 -65 67 -90 99 -86 111 4 12 2 15 -9 10
-23 -8 -57 45 -46 74 5 12 10 22 12 22 3 0 17 -19 32 -42z m2272 -9 c81 -19
203 -16 301 6 45 10 85 15 88 12 3 -3 -15 -48 -41 -100 -38 -77 -46 -101 -40
-126 l7 -31 -85 0 c-58 0 -104 6 -148 21 -71 23 -149 65 -149 79 0 14 11 12
59 -11 23 -11 47 -19 53 -17 6 2 -10 12 -35 22 -39 15 -48 24 -62 61 -10 24
-15 48 -11 53 3 5 -3 17 -14 27 -11 10 -20 26 -20 37 0 17 1 17 19 -1 11 -11
45 -25 78 -32z m-1146 -89 c60 -16 114 -63 145 -126 37 -75 46 -213 19 -293
-16 -48 -19 -51 -50 -51 -29 0 -34 3 -33 23 1 12 1 45 0 73 -2 42 -6 53 -25
61 -21 10 -23 16 -19 77 5 81 -4 132 -24 140 -9 3 -38 -2 -64 -11 -58 -20 -71
-13 -48 28 27 47 14 63 -46 55 -28 -3 -62 -6 -76 -6 -21 0 -29 -8 -41 -42 -11
-31 -22 -44 -39 -46 -20 -3 -22 -8 -16 -40 3 -21 6 -56 6 -79 0 -57 20 -75 79
-71 36 2 46 0 46 -12 0 -20 -41 -25 -88 -9 -51 17 -73 4 -69 -41 3 -29 2 -31
-25 -28 -28 3 -28 4 -31 77 -4 92 17 160 66 226 75 99 193 132 333 95z m1093
-321 c39 -30 79 -106 78 -144 -1 -19 -10 -48 -22 -67 -24 -40 -26 -75 -3 -100
56 -63 184 39 207 166 7 38 8 38 44 33 58 -10 75 -35 74 -110 -1 -74 12 -99
53 -99 21 0 38 10 65 42 l37 43 46 -43 c26 -23 47 -46 47 -50 0 -4 -13 -10
-28 -13 -36 -7 -124 -102 -173 -185 l-36 -62 -77 54 c-41 30 -107 80 -145 110
-89 71 -311 275 -311 285 0 5 7 14 15 21 8 7 22 36 31 65 11 33 25 57 38 63
29 15 30 14 60 -9z m-1604 -50 c0 -4 7 -6 15 -3 8 4 15 2 15 -4 0 -6 8 -8 19
-5 10 2 24 -1 32 -9 8 -7 21 -13 29 -14 8 -1 68 -13 132 -28 65 -14 131 -26
147 -26 17 0 34 -7 39 -16 8 -15 10 -15 15 0 4 10 1 16 -9 16 -9 0 -14 5 -12
12 6 16 80 17 85 1 3 -8 -5 -13 -23 -13 -30 0 -30 -6 1 -12 11 -1 23 -10 27
-18 5 -12 7 -12 7 3 1 21 19 23 27 2 9 -21 -15 -48 -31 -35 -6 5 -15 7 -18 3
-4 -3 -7 -1 -7 7 0 9 -3 10 -14 1 -17 -14 -86 -4 -246 34 -174 41 -190 47
-190 63 0 12 -3 12 -15 2 -12 -10 -16 -9 -21 5 -5 13 -9 14 -15 3 -12 -19 -30
3 -23 29 6 20 34 22 34 2z m1366 -123 c11 -3 35 -21 53 -40 l32 -33 -18 -34
c-29 -55 -47 -77 -66 -81 -35 -6 -93 176 -73 229 6 15 10 14 29 -9 12 -14 31
-29 43 -32z m-2108 -166 c11 -18 9 -32 -14 -93 -28 -78 -42 -207 -29 -273 7
-39 7 -39 41 61 18 55 45 126 60 157 l27 56 38 -24 c22 -13 64 -35 95 -49 l55
-25 -26 -42 c-38 -61 -109 -213 -165 -351 -26 -65 -51 -118 -56 -119 -14 -2
-94 106 -132 179 -40 78 -58 93 -47 41 19 -98 81 -238 131 -297 19 -23 24 -35
16 -43 -13 -13 -178 117 -241 190 -34 40 -40 44 -41 25 0 -44 51 -181 90 -242
23 -35 38 -66 35 -70 -4 -3 -70 -6 -148 -6 -157 0 -247 15 -399 66 -49 17 -92
29 -94 26 -6 -6 114 -100 187 -146 67 -42 215 -114 301 -146 140 -52 -95 -43
-350 15 -139 31 -336 87 -488 138 -78 26 -147 46 -153 44 -33 -11 23 -118 102
-196 59 -58 200 -156 224 -156 6 0 15 -5 19 -11 9 -15 -71 -5 -205 25 -56 12
-101 20 -101 16 0 -14 37 -40 91 -64 67 -31 186 -62 299 -77 47 -7 87 -13 88
-15 6 -4 -79 -78 -117 -101 -20 -12 -69 -30 -108 -39 -103 -23 -202 -9 -320
47 -119 55 -209 115 -232 153 -49 79 -74 265 -61 448 14 190 59 296 179 421
117 122 305 229 476 271 200 50 257 57 500 63 l240 5 -84 -81 -84 -81 6 -102
c6 -102 31 -226 65 -323 l17 -50 6 195 c5 177 8 203 34 280 30 93 75 189 100
214 9 9 28 16 42 16 29 0 29 5 -12 -129 -14 -47 -24 -90 -22 -95 2 -6 12 16
21 49 29 100 107 265 125 265 3 0 12 -9 19 -20z m2324 -291 c251 -84 496 -283
617 -500 50 -90 92 -224 98 -315 l6 -81 -44 -59 c-60 -82 -138 -158 -187 -183
-84 -43 -175 -15 -288 90 l-66 62 -82 -6 c-78 -6 -137 -21 -197 -53 -16 -8
-29 -11 -29 -7 1 14 197 147 282 191 77 39 80 47 18 42 -47 -3 -285 -59 -425
-99 -76 -22 -141 -38 -144 -36 -2 3 5 15 16 28 39 41 152 223 193 308 23 48
43 107 47 137 5 47 4 52 -14 52 -27 0 -88 -55 -183 -165 -57 -67 -88 -95 -103
-95 -13 1 -68 41 -132 96 -198 172 -223 180 -338 119 -64 -34 -97 -43 -97 -27
0 4 21 37 46 72 103 143 302 307 434 358 218 85 448 113 572 71z m-2904 -1472
c25 -49 40 -90 36 -100 -9 -24 -156 -62 -359 -92 -155 -23 -158 -23 -218 36
-66 65 -121 103 -175 121 -56 19 -53 33 6 32 44 -2 45 -1 18 9 l-29 10 34 18
c45 24 57 24 124 -7 114 -52 324 -43 445 20 36 19 67 34 70 35 3 1 24 -36 48
-82z m-733 -42 c46 -13 156 -80 154 -94 0 -3 -41 -26 -92 -50 -67 -32 -109
-61 -156 -107 -35 -35 -74 -65 -85 -67 -44 -9 185 -6 299 3 276 23 575 71 658
105 14 6 17 2 17 -19 0 -41 -59 -61 -261 -90 -515 -75 -953 -62 -1029 29 -19
23 -5 30 22 11 12 -9 34 -16 48 -15 21 1 20 2 -10 11 -74 21 -77 45 -17 103
58 55 173 124 272 163 91 36 113 38 180 17z"/>
</g>
</svg>
