<?xml version="1.0" standalone="no"?>
<!DOCTYPE svg PUBLIC "-//W3C//DTD SVG 20010904//EN"
 "http://www.w3.org/TR/2001/REC-SVG-20010904/DTD/svg10.dtd">
<svg version="1.0" xmlns="http://www.w3.org/2000/svg"
 width="1024.000000pt" height="1024.000000pt" viewBox="0 0 1024.000000 1024.000000"
 preserveAspectRatio="xMidYMid meet">
<metadata>
Created by potrace 1.16, written by Peter Selinger 2001-2019
</metadata>
<g transform="translate(0.000000,1024.000000) scale(0.100000,-0.100000)"
fill="#000000" stroke="none">
<path d="M0 5120 l0 -5120 5120 0 5120 0 0 5120 0 5120 -5120 0 -5120 0 0
-5120z m6970 2671 c217 -60 417 -197 549 -375 41 -56 105 -175 98 -182 -3 -3
-15 14 -27 38 -104 202 -307 377 -528 458 -171 62 -121 61 -2017 57 l-1720 -3
-76 -22 c-255 -74 -445 -211 -586 -422 -25 -39 -48 -70 -50 -70 -12 0 76 143
124 203 58 70 171 167 247 212 97 57 266 112 391 128 17 2 813 4 1770 3 l1740
-1 85 -24z m-2342 -121 c161 -99 338 -146 512 -136 172 10 344 63 468 147 l34
22 -7 -69 c-4 -38 -20 -159 -36 -269 -17 -110 -38 -261 -49 -335 -26 -182 -70
-556 -70 -593 l0 -30 -62 8 c-203 23 -397 25 -583 5 -44 -5 -82 -7 -84 -4 -2
2 -10 52 -18 111 -23 183 -62 463 -113 821 -28 188 -50 344 -50 347 0 9 10 5
58 -25z m1693 -340 c140 -163 286 -261 480 -321 58 -19 98 -24 187 -24 90 0
111 -3 107 -13 -4 -12 -132 -214 -270 -427 -18 -27 -69 -113 -115 -190 -45
-77 -93 -156 -105 -176 -13 -19 -37 -63 -54 -97 -17 -34 -35 -62 -39 -62 -4 0
-20 9 -37 21 -95 65 -373 188 -560 249 -55 18 -103 35 -106 39 -4 3 7 35 25
71 112 232 222 512 330 846 72 219 64 204 84 174 10 -14 42 -54 73 -90z
m-2263 -105 c101 -288 209 -568 285 -737 37 -80 67 -151 67 -157 0 -5 -18 -15
-41 -21 -150 -41 -452 -173 -592 -258 -37 -23 -70 -42 -73 -42 -2 0 -13 20
-24 44 -29 70 -395 671 -530 871 -15 22 -30 45 -34 52 -5 9 10 10 62 6 152
-13 359 51 528 163 62 42 164 141 229 223 27 34 49 60 51 58 2 -1 34 -93 72
-202z m-1134 -848 c104 -150 314 -408 411 -502 11 -11 29 -31 40 -44 20 -24
20 -24 0 -13 -34 17 -294 289 -418 436 -116 137 -117 140 -117 190 0 58 -4 61
84 -67z m4456 65 c0 -48 -2 -51 -128 -198 -146 -169 -375 -409 -406 -426 -20
-10 -20 -10 -6 7 8 10 38 41 65 70 106 108 336 396 431 539 20 31 38 56 40 56
2 0 4 -22 4 -48z m-2165 -429 c71 -25 156 -111 180 -182 35 -106 2 -224 -85
-312 -56 -56 -126 -82 -217 -81 -79 2 -137 26 -193 82 -61 61 -85 119 -85 210
1 65 5 83 32 136 36 70 96 126 157 148 57 20 151 20 211 -1z m792 -157 c-6
-14 14 -28 43 -30 8 -1 16 -11 18 -23 5 -31 20 -29 17 2 -2 14 0 27 5 30 4 2
7 -3 6 -13 0 -9 4 -17 9 -17 6 0 9 6 9 13 -1 6 8 12 20 12 17 0 18 -2 6 -11
-12 -8 -10 -9 10 -7 21 3 25 -1 23 -22 -2 -20 -1 -22 7 -9 9 16 60 15 60 -1 0
-4 9 -10 21 -13 12 -3 18 -10 15 -16 -4 -5 -2 -12 4 -16 6 -4 8 -10 6 -14 -3
-3 4 -7 15 -7 19 0 19 1 -2 17 -14 11 -18 18 -10 23 6 4 11 2 11 -5 0 -7 3 -9
7 -6 3 4 12 -1 20 -11 8 -9 12 -11 8 -5 -4 9 -1 11 10 7 9 -4 14 -13 11 -20
-3 -9 1 -11 12 -8 11 4 8 -2 -8 -15 l-25 -22 27 12 c15 7 38 8 55 4 15 -4 22
-10 16 -12 -7 -3 -13 -11 -13 -20 0 -12 2 -12 16 1 19 19 31 21 15 3 -8 -10
-7 -14 4 -14 8 0 15 5 15 11 1 6 8 0 16 -14 11 -18 14 -20 10 -5 -6 19 -5 19
7 3 8 -10 17 -14 21 -10 4 4 6 0 4 -8 -2 -10 6 -16 25 -18 15 -2 27 -8 27 -13
0 -6 4 -8 9 -5 5 3 15 -2 22 -11 12 -15 12 -16 -6 -9 -11 4 -16 3 -11 -1 4 -4
17 -8 29 -8 11 0 22 -6 25 -14 3 -8 0 -11 -7 -7 -8 5 -8 1 0 -18 7 -14 18 -28
27 -31 12 -4 12 -3 3 9 -9 11 -8 15 5 20 22 8 34 -1 28 -22 -5 -14 -4 -15 5
-2 8 12 19 5 62 -40 28 -30 48 -49 44 -41 -5 9 -3 12 4 10 7 -3 11 -8 9 -13
-2 -4 7 -13 19 -19 12 -7 21 -15 20 -18 -4 -10 31 -39 47 -39 9 0 16 -5 16
-11 0 -5 -5 -7 -12 -3 -7 4 -8 3 -4 -5 6 -9 11 -9 24 1 12 10 14 10 8 1 -4 -8
-1 -13 9 -13 9 0 14 -4 10 -10 -3 -5 -13 -7 -23 -4 -14 5 -14 4 -3 -4 9 -7 21
-7 32 -2 13 8 18 4 23 -16 4 -14 3 -30 -1 -37 -4 -7 0 -7 10 2 15 12 17 11 17
-4 0 -15 2 -15 16 -5 12 11 15 11 12 -1 -2 -8 4 -13 14 -13 10 1 16 -3 15 -9
-1 -6 3 -11 10 -12 6 0 15 -4 20 -8 4 -5 3 -7 -2 -5 -6 2 -11 -2 -12 -7 -1 -6
6 -8 15 -7 13 3 14 1 3 -11 -10 -13 -8 -15 12 -13 26 3 33 -19 10 -28 -8 -3
-11 -1 -8 4 3 6 2 10 -2 10 -5 0 -13 -8 -20 -18 -9 -15 -7 -21 11 -32 19 -12
20 -12 7 3 -7 10 -10 17 -5 18 5 0 17 2 27 4 9 2 15 0 12 -4 -2 -5 9 -23 25
-41 17 -19 28 -36 25 -38 -9 -9 17 -32 37 -32 15 0 18 -4 11 -12 -5 -7 -10
-24 -11 -37 -1 -18 3 -22 18 -18 11 3 18 0 17 -7 -3 -18 -39 -46 -50 -39 -6 3
-7 1 -3 -6 4 -6 11 -9 15 -7 16 10 61 14 56 5 -4 -5 -10 -7 -15 -4 -5 3 -8 -3
-7 -14 1 -20 27 -18 27 3 0 6 6 0 13 -14 13 -25 12 -26 -82 -73 -114 -58 -295
-156 -516 -281 -88 -49 -203 -113 -255 -141 -102 -56 -332 -199 -525 -328
-290 -194 -521 -376 -706 -558 l-122 -118 -116 114 c-171 167 -362 323 -588
478 -46 32 -118 81 -160 111 -221 152 -660 411 -994 586 -118 62 -239 126
-269 142 -30 16 -60 40 -67 54 -10 22 -10 24 3 14 11 -10 14 -9 15 6 1 11 1
26 0 34 -2 13 0 13 8 1 5 -8 7 -21 4 -30 -3 -9 6 -1 21 18 14 19 26 37 26 40
0 3 -9 -5 -20 -19 -20 -26 -24 -21 -14 17 4 14 11 20 18 16 6 -4 5 1 -3 11
-12 15 -12 17 0 14 8 -2 13 3 11 11 -3 12 0 12 12 2 12 -10 14 -9 12 6 -2 10
6 27 18 39 12 11 22 27 24 35 2 7 8 16 13 17 5 2 7 8 4 13 -4 5 0 6 8 3 8 -3
18 0 23 7 5 8 3 10 -7 5 -8 -4 -4 1 9 12 12 11 22 28 22 36 0 9 7 19 16 23 8
3 13 11 11 17 -3 8 5 12 22 12 19 -1 26 4 25 16 -1 10 2 15 7 12 5 -3 9 0 9 6
0 6 5 8 12 4 8 -5 9 -2 5 10 -5 14 -3 17 8 13 21 -9 27 9 8 24 -14 12 -16 12
-8 0 6 -10 4 -12 -5 -6 -10 6 -9 11 6 22 16 12 19 11 26 -6 3 -10 13 -22 20
-26 10 -6 10 -5 1 5 -14 15 -6 40 14 40 8 0 21 7 29 15 9 8 11 15 5 15 -6 0
-11 5 -11 12 0 6 3 8 7 5 3 -4 12 1 20 11 12 16 13 16 7 0 -8 -24 -1 -23 22 4
12 13 13 18 4 13 -13 -8 -13 -6 -1 8 7 9 17 14 22 11 5 -3 10 3 10 13 1 17 2
17 6 1 6 -23 25 -24 21 -2 -2 10 4 19 12 21 13 4 13 3 0 -6 -12 -8 -10 -10 11
-8 14 1 33 9 42 19 15 14 15 17 1 22 -8 3 -13 2 -10 -3 3 -5 0 -13 -7 -19 -8
-7 -16 -5 -27 6 -13 14 -12 15 2 10 10 -4 19 -1 22 7 3 9 12 12 22 8 12 -4 15
-3 10 5 -4 7 -1 12 9 12 10 0 13 -5 9 -12 -4 -7 -3 -8 5 -4 6 4 9 12 6 17 -4
5 1 12 10 15 14 6 14 9 3 16 -10 7 -9 8 5 4 11 -3 17 0 17 9 0 8 5 15 10 15 7
0 7 -7 0 -21 -7 -11 -9 -23 -6 -26 6 -6 15 13 21 44 2 10 4 20 4 22 1 2 9 -3
18 -10 14 -12 16 -12 8 0 -6 11 -4 13 9 8 9 -4 15 -3 12 2 -3 5 8 14 24 20 17
5 30 16 31 23 0 7 4 4 9 -7 8 -18 9 -18 9 -2 1 10 6 15 11 12 10 -6 15 9 10
30 -1 6 2 7 6 3 4 -4 13 -3 20 3 9 8 15 5 23 -9 6 -11 7 -23 3 -27 -4 -5 -1
-5 6 -1 7 4 10 17 6 31 -3 12 -1 26 5 29 7 5 8 1 4 -11 -6 -16 -5 -17 13 -3
17 14 18 13 7 -1 -7 -9 -10 -19 -7 -22 9 -8 33 16 27 27 -3 4 1 12 8 17 12 7
11 9 -1 9 -13 0 -13 2 0 9 21 14 32 3 19 -20 -6 -12 -8 -23 -6 -26 3 -2 8 5
12 17 4 13 12 19 21 16 8 -3 17 1 21 10 3 9 12 13 21 9 12 -4 13 -3 3 9 -7 8
-20 12 -29 9 -14 -4 -14 -3 -3 5 10 7 22 6 39 -6 22 -15 24 -14 22 4 -4 36 0
42 25 39 14 -1 25 2 25 6 0 5 5 9 11 9 5 0 7 -4 4 -10 -3 -5 -1 -10 4 -10 6 0
11 5 11 11 0 5 5 7 12 3 7 -5 9 -2 5 9 -7 19 23 33 35 15 7 -12 12 -4 9 15 -1
6 27 11 71 11 9 0 14 4 11 9 -3 5 0 8 8 5 8 -3 37 6 66 18 l52 23 -64 -97
c-119 -182 -168 -358 -168 -597 0 -157 14 -236 62 -360 84 -219 263 -421 459
-519 127 -64 275 -105 410 -113 272 -16 554 79 760 255 163 141 284 391 312
644 30 266 -40 514 -217 765 l-15 23 39 -14 c22 -8 60 -24 84 -35 24 -12 36
-16 27 -8 -10 8 -14 18 -10 22 4 5 1 5 -5 1 -7 -4 -13 -3 -13 3 0 6 -6 8 -14
5 -8 -3 -17 -1 -21 5 -4 7 0 8 11 4 13 -5 15 -3 9 7 -5 9 -4 11 3 6 7 -4 12
-2 12 3 0 6 3 11 6 11 3 0 4 -6 1 -14z m-2949 -1521 c253 -128 611 -326 779
-431 204 -127 572 -386 638 -447 11 -11 46 -39 77 -64 32 -25 55 -49 53 -54
-3 -4 0 -11 6 -15 8 -5 9 -3 4 7 -8 12 -6 12 8 0 9 -7 14 -18 10 -24 -3 -5 -2
-7 4 -4 5 4 41 -23 79 -59 38 -37 60 -60 49 -53 -18 13 -19 13 -6 -3 7 -10 20
-18 28 -18 8 0 11 -5 8 -10 -4 -6 -11 -7 -17 -4 -7 4 -8 2 -4 -4 4 -6 13 -9
21 -5 8 3 15 0 15 -7 0 -6 -4 -8 -10 -5 -5 3 -10 1 -10 -4 0 -6 5 -12 10 -12
6 -1 14 -2 18 -3 5 0 16 -9 26 -18 12 -13 14 -18 4 -18 -10 0 -9 -3 2 -10 8
-5 10 -10 4 -10 -16 0 -35 25 -26 35 4 5 2 6 -4 2 -5 -3 -41 26 -80 65 -38 40
-63 68 -55 63 9 -5 12 -4 7 3 -4 6 -13 9 -22 5 -11 -4 -14 0 -10 21 2 14 1 28
-4 31 -5 3 -7 -4 -5 -15 2 -11 2 -20 0 -20 -3 0 -63 49 -135 110 -386 325
-834 611 -1445 921 -140 71 -231 123 -233 133 -2 9 3 16 13 16 9 0 100 -43
203 -95z m4322 76 c0 -16 -56 -48 -267 -154 -375 -188 -688 -369 -958 -555
-241 -166 -496 -364 -617 -480 -51 -49 -75 -50 -51 -2 8 17 19 27 25 24 6 -4
8 -3 5 3 -7 11 123 126 303 268 211 166 597 417 919 597 126 71 618 318 633
318 4 0 8 -9 8 -19z"/>
</g>
</svg>
