<?xml version="1.0" standalone="no"?>
<!DOCTYPE svg PUBLIC "-//W3C//DTD SVG 20010904//EN"
 "http://www.w3.org/TR/2001/REC-SVG-20010904/DTD/svg10.dtd">
<svg version="1.0" xmlns="http://www.w3.org/2000/svg"
 width="1024.000000pt" height="1024.000000pt" viewBox="0 0 1024.000000 1024.000000"
 preserveAspectRatio="xMidYMid meet">
<metadata>
Created by potrace 1.16, written by Peter Selinger 2001-2019
</metadata>
<g transform="translate(0.000000,1024.000000) scale(0.100000,-0.100000)"
fill="#000000" stroke="none">
<path d="M0 5120 l0 -5120 5120 0 5120 0 0 5120 0 5120 -5120 0 -5120 0 0
-5120z m5857 3502 c33 -54 112 -107 176 -117 l41 -7 -56 -18 c-112 -34 -164
-84 -203 -192 l-22 -61 -18 54 c-36 110 -117 189 -208 204 l-41 7 60 22 c33
12 77 35 97 50 43 33 93 127 103 194 l7 47 18 -68 c9 -38 30 -90 46 -115z
m-632 -141 c79 -12 35 -20 -175 -31 -163 -8 -372 -33 -468 -55 -15 -4 -24 0
-28 10 -4 9 -5 18 -2 20 8 8 238 46 329 54 119 11 279 11 344 2z m-1331 -64
c12 -66 74 -127 151 -148 l40 -11 -43 -13 c-80 -24 -135 -83 -157 -170 l-8
-30 -7 25 c-12 42 -47 104 -72 127 -12 12 -45 30 -72 41 l-50 19 52 17 c63 21
117 78 134 141 13 50 23 50 32 2z m2407 -156 c33 -33 35 -50 14 -90 -37 -73
-155 -43 -155 39 0 74 87 105 141 51z m-806 -29 c257 -50 543 -146 759 -254
92 -46 264 -147 272 -159 2 -5 -4 -17 -15 -28 -10 -10 -23 -27 -29 -37 -9 -16
-15 -14 -79 24 -305 181 -770 335 -1123 371 -52 6 -96 9 -98 7 -1 -2 15 -48
38 -101 22 -54 38 -100 36 -103 -6 -6 -61 104 -90 182 -14 35 -32 76 -42 91
-16 25 -17 25 -31 5 -8 -11 -35 -68 -60 -127 -65 -153 -86 -170 -32 -26 13 34
21 64 18 67 -9 9 -255 -13 -334 -30 -143 -30 -130 -32 -145 21 -11 38 -11 48
0 55 16 10 212 49 305 60 125 15 537 4 650 -18z m-2733 -159 c12 -13 36 -27
52 -32 l31 -8 -35 -15 c-42 -18 -74 -52 -87 -92 l-9 -30 -25 50 c-16 33 -36
56 -61 70 l-38 20 44 21 c36 18 47 30 62 69 l18 47 13 -39 c7 -21 23 -49 35
-61z m1717 65 c-24 -86 -18 -82 -187 -137 -152 -49 -380 -153 -515 -235 l-57
-35 -25 37 c-14 20 -25 40 -25 44 0 12 180 114 332 188 137 67 419 170 465
170 20 0 21 -3 12 -32z m-759 -57 c0 -5 -33 -26 -72 -47 -40 -20 -98 -54 -128
-73 -30 -19 -64 -34 -75 -32 -53 8 -47 19 46 73 163 96 190 108 211 97 10 -5
18 -13 18 -18z m828 -70 c16 -28 59 -52 101 -58 53 -7 48 -23 -12 -38 -58 -15
-83 -36 -97 -84 -7 -20 -14 -43 -17 -51 -3 -9 -10 2 -18 28 -20 66 -40 89 -95
109 l-51 19 55 17 c62 20 83 43 93 102 l6 40 14 -35 c7 -19 17 -42 21 -49z
m1586 -163 c3 -13 6 -32 6 -44 0 -30 28 -52 91 -70 l54 -17 -40 -13 c-80 -28
-104 -53 -120 -126 -8 -40 -21 -34 -34 15 -18 68 -61 107 -120 107 -42 0 -32
11 30 34 59 21 79 44 86 95 4 30 10 41 23 41 10 0 20 -10 24 -22z m-2652 -20
c75 -35 138 -94 179 -170 33 -61 34 -67 34 -173 0 -92 -4 -118 -22 -157 -30
-67 -107 -145 -178 -181 -55 -29 -68 -32 -155 -32 -85 0 -101 3 -155 29 -75
37 -150 106 -181 167 -109 216 9 481 240 540 61 16 177 4 238 -23z m3492 -2
c72 -35 149 -119 171 -187 24 -70 16 -195 -15 -261 -53 -113 -161 -181 -290
-182 -66 -1 -84 3 -142 32 -81 40 -149 113 -179 192 -28 73 -23 184 10 250 27
53 93 125 136 147 96 51 216 55 309 9z m-1691 -75 c85 -41 160 -114 195 -188
38 -82 44 -222 12 -306 -27 -72 -71 -131 -135 -179 -191 -145 -489 -77 -594
133 -44 88 -56 158 -42 244 22 130 81 219 188 282 72 42 120 53 219 50 79 -2
100 -7 157 -36z m-1055 -244 c12 -11 39 -21 66 -24 58 -7 59 -19 1 -27 -61
-10 -85 -32 -100 -96 -9 -37 -14 -46 -14 -27 -2 51 -28 97 -65 112 -20 8 -46
15 -58 16 -15 0 -5 7 29 20 65 25 93 58 94 113 l1 41 13 -54 c8 -30 22 -63 33
-74z m3325 -255 c90 -118 127 -179 120 -198 -3 -8 -8 -14 -12 -14 -4 0 -52 58
-105 130 -54 71 -139 174 -189 227 -80 85 -92 102 -89 128 4 30 5 28 100 -70
54 -55 132 -147 175 -203z m-4673 195 c0 -15 -35 -65 -97 -138 -53 -63 -118
-148 -145 -189 -51 -77 -71 -91 -76 -54 -5 36 130 224 257 357 51 53 61 57 61
24z m4529 -306 c132 -173 268 -408 342 -591 93 -229 145 -446 125 -525 -7 -26
-7 -26 -36 -8 -33 19 -37 28 -15 37 11 4 13 14 9 38 -23 133 -110 379 -199
563 -71 147 -161 287 -311 486 -99 133 -102 138 -86 160 l16 22 48 -52 c27
-30 75 -88 107 -130z m-4464 69 c4 -12 -18 -49 -68 -116 -175 -236 -335 -521
-417 -739 -21 -55 -57 -175 -80 -268 -39 -152 -45 -168 -67 -173 -13 -4 -27
-4 -30 -1 -9 10 56 273 105 422 82 251 264 582 451 823 58 75 75 91 86 82 8
-7 17 -20 20 -30z m1075 -142 c413 -247 662 -428 873 -636 103 -102 134 -148
43 -64 -30 27 -103 81 -163 121 -119 79 -123 84 72 -98 l90 -84 -65 45 c-85
59 -300 188 -313 188 -6 0 34 -30 89 -66 88 -58 167 -124 148 -124 -3 0 -61
28 -128 63 -66 35 -184 92 -261 127 -182 82 -205 91 -205 86 0 -3 66 -38 148
-78 228 -114 404 -218 369 -218 -2 0 -65 24 -139 54 -141 56 -328 120 -335
113 -3 -4 198 -99 363 -172 l62 -27 6 -351 c3 -194 9 -469 12 -612 4 -143 4
-258 1 -255 -3 3 -12 244 -21 535 -9 292 -19 554 -22 583 -6 52 -7 54 -52 74
-67 28 -605 228 -737 273 -60 21 -199 69 -308 108 -109 38 -200 67 -202 65 -3
-2 4 -67 15 -144 71 -513 112 -847 109 -893 -3 -46 -76 357 -118 649 -17 118
-40 268 -50 332 -10 65 -16 120 -13 123 14 14 79 0 230 -49 92 -30 223 -71
291 -91 68 -20 131 -39 140 -42 11 -4 13 -3 6 4 -14 13 -248 112 -362 153
l-92 32 16 32 c8 17 17 32 18 34 3 3 245 -80 304 -104 67 -28 40 -6 -63 50
l-104 57 9 31 c4 17 10 32 12 34 2 2 98 -36 213 -85 434 -185 518 -220 522
-217 7 7 -212 128 -400 220 l-198 97 0 120 c0 66 3 118 8 116 4 -3 86 -52 182
-109z m2369 -15 c-3 -101 -7 -127 -19 -131 -8 -3 -129 -63 -268 -134 -221
-112 -392 -211 -392 -225 0 -3 15 5 33 17 39 26 160 84 242 115 33 13 98 41
145 63 90 42 386 162 398 162 7 0 35 -62 29 -65 -1 -1 -50 -27 -109 -59 -60
-31 -108 -58 -108 -60 0 -3 338 111 350 119 9 5 33 -55 25 -63 -3 -3 -49 -22
-103 -42 -116 -44 -364 -151 -359 -156 3 -4 25 3 375 115 140 45 267 81 284
81 27 0 29 -2 24 -27 -3 -16 -22 -140 -41 -278 -35 -243 -114 -724 -134 -815
l-10 -45 4 55 c8 95 54 484 91 764 19 147 33 270 31 273 -3 2 -29 -5 -58 -16
-30 -10 -187 -66 -349 -124 -162 -58 -369 -133 -460 -167 -91 -34 -218 -82
-283 -106 -65 -24 -126 -48 -136 -54 -16 -8 -19 -32 -25 -217 -24 -770 -35
-912 -30 -418 3 220 7 464 10 542 l6 141 46 18 c67 25 363 166 358 171 -2 2
-102 -32 -222 -76 -120 -44 -220 -78 -222 -76 -6 6 73 53 263 157 99 54 176
98 172 98 -5 0 -75 -30 -155 -66 -135 -61 -175 -80 -332 -167 -30 -16 -48 -23
-40 -15 39 40 152 128 213 167 37 24 67 46 67 48 0 11 -346 -197 -393 -236
-36 -30 -35 -27 13 23 30 32 95 92 143 132 48 41 84 74 80 74 -16 0 -160 -98
-242 -164 -73 -59 -80 -63 -54 -30 89 112 312 294 568 464 94 62 177 118 185
126 23 20 373 234 383 234 5 0 7 -57 6 -127z m778 15 c75 -79 274 -369 355
-519 33 -61 158 -420 158 -454 0 -11 -12 -15 -48 -15 -35 0 -67 -9 -111 -31
-69 -35 -103 -76 -132 -162 l-18 -52 -195 -3 c-170 -2 -196 0 -196 13 0 13 25
15 175 15 146 0 175 2 175 14 0 8 -4 18 -10 21 -5 3 -10 18 -10 33 0 21 19 45
82 106 85 80 111 96 154 96 20 0 24 5 24 30 0 16 -9 52 -20 81 -12 28 -20 68
-18 89 1 26 -8 53 -30 94 -18 31 -36 73 -40 94 -9 42 -25 49 -119 51 -48 1
-52 -1 -71 -33 -11 -18 -39 -44 -63 -57 -31 -17 -51 -38 -67 -69 -18 -36 -27
-44 -45 -42 -12 2 -24 5 -26 7 -3 4 58 85 71 95 4 3 1 29 -7 58 -13 51 -13 53
8 62 12 4 63 24 112 44 50 19 89 40 87 46 -5 21 -142 219 -212 306 l-70 88 28
18 c15 10 29 18 32 18 3 0 24 -19 47 -42z m-4069 -78 c-2 -3 -29 -44 -61 -92
-48 -73 -66 -108 -54 -108 1 0 46 -16 101 -35 l99 -36 -7 52 c-4 29 -10 65
-13 80 -6 34 -4 34 132 20 44 -5 87 -5 96 0 9 4 35 33 58 63 l43 55 64 -32
c35 -17 64 -37 64 -44 0 -17 -7 -16 -64 3 -26 9 -48 15 -50 13 -1 -2 -18 -26
-36 -52 -33 -47 -36 -48 -70 -40 -19 4 -61 8 -93 8 -50 0 -62 -4 -79 -25 -11
-13 -18 -33 -15 -45 27 -122 61 -291 87 -435 17 -96 49 -267 71 -380 33 -172
143 -824 163 -967 6 -41 5 -43 -19 -43 -14 0 -25 3 -25 6 0 28 -135 819 -195
1139 -41 220 -79 430 -85 466 l-12 67 -129 47 c-71 27 -131 46 -132 44 -2 -2
-16 -26 -32 -53 l-28 -49 -23 38 c-21 35 -22 41 -8 66 20 40 19 44 -26 64 -54
24 -46 41 17 37 l50 -2 38 57 c21 32 56 79 77 106 l40 47 29 -17 c16 -10 28
-20 27 -23z m2782 -48 c-13 -10 -112 -83 -220 -163 -270 -202 -406 -327 -507
-463 -36 -47 -28 -6 11 61 81 138 176 230 506 487 l185 145 25 -26 25 -25 -25
-16z m-1389 -32 c229 -181 383 -317 459 -404 81 -91 145 -191 116 -180 -9 3
-14 9 -13 13 1 4 -60 67 -135 140 -141 137 -253 229 -463 378 -66 48 -124 90
-129 94 -8 7 29 48 45 49 3 0 57 -41 120 -90z m2290 10 c51 -59 54 -61 93 -56
23 3 73 8 112 11 l71 6 -20 -128 c-25 -172 -81 -505 -176 -1053 -43 -250 -89
-521 -101 -602 l-22 -148 -28 0 -27 0 18 118 c48 305 86 533 140 827 33 176
68 376 79 445 12 69 34 194 50 278 38 194 38 197 -2 218 -31 16 -81 15 -158
-1 -20 -5 -29 1 -48 27 -52 76 -45 72 -95 50 -46 -20 -57 -19 -57 4 0 10 88
60 112 63 4 1 30 -26 59 -59z m-3925 -381 c16 -18 71 -41 129 -55 29 -6 28 -7
-24 -21 -29 -8 -63 -21 -76 -29 -21 -14 -64 -88 -81 -139 -5 -16 -9 -11 -20
25 -20 67 -60 108 -124 130 -30 10 -54 22 -53 27 1 4 22 14 47 21 59 17 100
56 122 119 l18 52 23 -56 c13 -31 30 -65 39 -74z m1214 -377 c32 -73 104 -138
164 -147 25 -4 62 -5 81 -3 19 2 35 3 35 3 0 -1 -6 -15 -14 -31 -35 -71 -34
-74 63 -134 49 -30 88 -56 87 -58 -2 -1 -39 11 -82 28 -43 16 -84 30 -90 30
-24 0 -29 -147 -8 -221 4 -14 -2 -16 -38 -12 -91 9 -176 -71 -193 -182 -15
-102 -17 -104 -30 -30 -41 230 -170 346 -320 289 -12 -5 -8 7 15 44 17 28 34
67 37 86 5 34 1 41 -73 123 l-79 87 50 -29 c28 -16 65 -38 84 -49 l33 -19 -7
34 c-14 66 -55 140 -112 201 l-58 61 55 -32 c30 -18 88 -49 129 -68 l73 -36
34 18 c37 20 72 66 106 140 l22 50 7 -46 c4 -25 17 -68 29 -97z m1380 74 c0
-33 -26 -52 -111 -83 -67 -24 -88 -27 -219 -27 -135 -1 -151 1 -233 29 -89 30
-127 54 -127 81 0 27 29 27 52 0 36 -42 146 -77 260 -83 155 -9 315 32 344 89
17 32 34 29 34 -6z m-2329 14 c22 -13 49 -61 49 -90 0 -36 -44 -70 -90 -70
-53 0 -80 27 -80 79 0 72 60 113 121 81z m-466 -49 c-4 -9 -22 -74 -40 -146
l-33 -130 -28 3 c-16 2 -32 6 -36 10 -6 6 53 260 65 280 3 4 22 6 42 4 29 -3
35 -8 30 -21z m2265 -102 c132 -35 338 -26 453 20 16 6 31 11 34 11 11 0 -2
-249 -14 -262 -10 -10 -13 9 -13 95 0 59 -1 107 -2 107 -2 0 -28 -10 -58 -22
-41 -16 -85 -22 -174 -26 -127 -5 -203 6 -268 39 l-38 19 0 -105 c0 -58 -4
-105 -9 -105 -13 0 -19 33 -27 154 l-7 109 24 -7 c13 -4 58 -16 99 -27z m1670
-2 c0 -8 -9 -39 -19 -70 -68 -196 -292 -337 -494 -311 -98 13 -217 65 -262
114 -14 16 6 9 80 -27 l100 -48 125 0 c122 0 127 1 193 33 111 55 203 167 250
305 7 20 27 23 27 4z m-139 -132 c-37 -74 -92 -127 -170 -164 -49 -23 -68 -26
-156 -26 -86 1 -109 5 -167 29 -80 33 -109 59 -57 50 24 -4 30 -3 20 4 -10 7
11 16 75 31 49 11 114 30 144 42 30 12 75 27 99 34 l43 14 -6 -30 c-3 -17 -15
-44 -27 -61 l-22 -30 32 17 c30 15 91 96 91 120 0 6 28 25 63 42 59 29 62 30
65 11 2 -11 -10 -48 -27 -83z m1297 29 c60 -37 92 -97 92 -171 0 -62 -14 -98
-55 -137 -59 -56 -139 -71 -213 -40 -96 40 -147 139 -122 236 17 64 52 104
112 127 68 27 124 22 186 -15z m489 2 c22 -19 28 -32 28 -66 0 -56 -37 -90
-99 -90 -64 0 -108 57 -87 113 26 68 104 89 158 43z m-5636 -159 c54 -22 125
-108 139 -168 26 -106 -8 -213 -87 -278 -138 -114 -350 -60 -413 104 -15 39
-15 171 0 210 52 136 212 195 361 132z m467 -64 l3 -33 -138 0 -138 0 -28 35
-28 36 163 -3 163 -3 3 -32z m1927 -34 c130 -18 327 7 402 51 40 24 43 13 6
-22 -52 -49 -120 -63 -298 -63 -142 0 -166 3 -216 23 -54 22 -99 54 -99 72 0
5 28 -4 63 -20 36 -17 95 -34 142 -41z m-2998 -1 c16 -15 23 -33 23 -57 -1
-84 -90 -118 -140 -54 -62 79 44 180 117 111z m2878 -79 c47 -23 59 -24 230
-24 164 0 185 2 235 23 30 12 58 22 62 22 7 0 1 -158 -8 -217 -10 -64 -19 -31
-19 67 0 55 -2 99 -5 97 -120 -71 -353 -83 -472 -24 -47 23 -47 23 -52 3 -3
-12 -6 -55 -6 -96 0 -48 -4 -70 -9 -60 -12 21 -26 244 -15 238 5 -2 32 -15 59
-29z m2330 -129 c15 -29 79 -70 110 -70 29 0 15 -17 -23 -28 -49 -15 -89 -57
-105 -113 l-14 -44 -13 44 c-18 56 -60 97 -117 114 l-45 13 45 18 c71 27 95
51 114 114 l17 57 8 -38 c4 -21 15 -51 23 -67z m-3895 11 c0 -19 -10 -20 -245
-21 -201 0 -245 2 -245 13 0 8 3 17 7 20 3 4 114 7 245 7 229 0 238 -1 238
-19z m4704 -148 c8 -16 40 -54 71 -84 l56 -55 -49 -31 c-39 -24 -56 -44 -80
-92 -17 -34 -34 -82 -38 -107 -5 -34 -10 -44 -23 -42 -11 2 -18 19 -22 58 -8
73 -30 122 -79 177 -22 25 -40 50 -40 56 0 6 24 36 54 67 53 56 86 126 86 185
0 49 16 32 32 -34 9 -38 24 -83 32 -98z m-254 -66 c0 -107 -5 -232 -10 -278
-17 -136 -13 -128 -70 -127 -87 0 -148 -27 -217 -99 -35 -36 -66 -62 -70 -60
-5 3 -6 27 -5 55 l4 49 96 47 c62 29 111 46 134 46 25 0 40 6 47 18 14 26 31
243 31 391 0 113 2 131 18 140 41 24 42 20 42 -182z m-4759 86 c0 -22 55 -67
64 -53 3 5 17 10 31 10 30 0 32 -25 4 -60 -25 -32 -25 -46 0 -77 23 -29 13
-53 -22 -53 -27 0 -68 -30 -79 -57 -11 -30 -37 -30 -45 1 -5 22 -40 46 -67 46
-7 0 -25 11 -42 24 l-30 24 25 12 c33 15 40 69 10 77 -14 4 -20 14 -20 34 0
36 15 45 43 26 21 -13 25 -12 55 12 17 15 32 33 32 39 0 20 40 14 41 -5z
m1841 -63 c112 -66 408 -66 537 -1 46 24 55 13 15 -18 -71 -56 -282 -85 -411
-58 -91 20 -158 49 -172 76 -14 26 -11 26 31 1z m2776 -75 l-2 -25 -183 0
c-101 0 -183 3 -183 6 0 3 5 14 10 25 10 18 23 19 185 19 l175 0 -2 -25z
m-2617 -76 c137 -17 274 -1 382 46 15 6 17 1 16 -56 0 -35 -4 -86 -9 -114 -7
-46 -8 -47 -10 -15 -2 19 -4 44 -5 55 -1 11 -2 34 -3 51 l-2 32 -62 -26 c-50
-21 -84 -27 -169 -30 -122 -5 -203 9 -253 43 l-36 24 0 -100 c0 -113 -15 -126
-24 -21 -4 37 -9 90 -11 119 l-5 52 54 -25 c30 -13 90 -29 137 -35z m-2692 7
c6 -7 15 -72 21 -145 12 -155 37 -292 86 -480 19 -73 34 -134 32 -136 -2 -1
-15 -5 -30 -9 -26 -6 -28 -4 -47 61 -59 198 -97 414 -108 611 -6 120 -6 121
15 115 12 -3 26 -11 31 -17z m4919 -114 c15 -10 45 -26 66 -34 l39 -15 -32 -6
c-52 -11 -88 -43 -109 -98 l-19 -51 -17 45 c-21 55 -40 73 -102 97 -41 15 -46
20 -29 26 95 34 108 45 136 119 l11 30 14 -47 c9 -30 24 -54 42 -66z m-5174
-24 c3 -29 10 -104 16 -165 14 -147 36 -273 70 -405 27 -106 28 -118 5 -118
-17 0 -62 162 -95 344 -21 117 -44 372 -34 387 3 5 11 9 19 9 9 0 15 -17 19
-52z m6170 37 c7 -20 -9 -218 -28 -346 -12 -78 -45 -247 -83 -421 -3 -15 -16
-34 -29 -43 -24 -15 -24 -15 -20 7 9 40 55 260 70 338 9 41 25 161 37 265 11
105 23 196 25 203 5 17 21 15 28 -3z m-5039 -262 c23 -21 50 -50 60 -65 l20
-28 50 65 50 65 88 0 c78 0 92 -3 128 -27 53 -35 39 -43 -82 -43 l-97 0 -62
-91 c-34 -49 -65 -89 -70 -87 -4 2 -40 42 -80 91 l-73 87 -298 0 c-165 0 -299
-3 -299 -6 0 -3 42 -58 93 -122 51 -64 105 -133 120 -153 l27 -36 0 -346 0
-346 -322 -3 c-312 -3 -325 -4 -373 -26 -65 -30 -138 -102 -167 -166 l-23 -51
-3 -699 c-3 -822 -9 -770 97 -877 92 -92 148 -113 287 -107 85 4 111 9 157 32
31 15 66 37 78 51 l23 23 29 -24 c34 -29 49 -29 317 -9 229 18 241 20 269 46
19 18 23 19 43 4 28 -19 100 -19 138 0 15 8 38 27 49 41 l21 27 21 -27 c55
-70 467 -317 1009 -606 168 -89 310 -166 315 -170 6 -4 95 -53 199 -109 l188
-100 62 31 c33 17 165 88 291 158 127 70 318 174 425 230 389 205 879 492 932
545 23 23 27 24 38 9 27 -31 72 -46 124 -41 40 4 55 11 79 37 27 30 29 31 42
13 8 -10 15 -21 15 -24 1 -26 203 -63 415 -76 97 -6 101 -5 131 20 l31 26 34
-35 c48 -50 147 -79 241 -71 135 11 247 87 305 205 l28 57 0 700 0 700 -33 67
c-44 90 -113 151 -199 178 -58 18 -93 20 -324 20 l-259 0 -31 68 c-17 37 -79
180 -139 318 -144 336 -245 553 -274 589 l-24 30 -239 5 -238 5 49 33 50 32
188 0 c208 0 224 -4 272 -61 37 -44 63 -97 220 -454 76 -170 155 -349 178
-397 l41 -87 276 -3 276 -3 69 -34 c121 -59 195 -153 222 -282 14 -64 15 -158
9 -719 -4 -355 -10 -669 -15 -697 -22 -127 -116 -249 -237 -306 -59 -27 -81
-32 -170 -35 -111 -5 -176 10 -245 55 -29 20 -40 22 -57 14 -63 -34 -519 15
-578 61 -9 7 -26 5 -53 -6 -52 -20 -113 -20 -156 0 -31 15 -37 15 -52 2 -17
-15 -339 -210 -422 -256 -25 -14 -74 -41 -110 -62 -75 -43 -475 -256 -665
-355 -356 -185 -498 -255 -518 -255 -22 0 -273 122 -512 247 -60 32 -182 96
-270 142 -145 76 -322 174 -540 299 -44 25 -157 95 -252 154 l-171 108 -42
-21 c-34 -18 -52 -21 -106 -16 -45 3 -74 0 -93 -9 -33 -16 -242 -33 -478 -39
-139 -4 -168 -7 -202 -25 -134 -68 -311 -65 -443 7 -27 15 -76 55 -108 89 -67
73 -97 141 -111 254 -6 42 -8 367 -7 730 3 730 -1 688 75 798 45 66 117 119
194 143 54 17 95 19 350 19 l289 0 0 215 c0 118 -1 215 -3 215 -2 0 -80 -15
-173 -34 -184 -37 -314 -54 -314 -40 0 18 16 31 59 48 47 18 390 106 415 106
11 0 16 10 16 34 0 28 -21 61 -115 185 -125 164 -175 237 -175 258 0 10 73 13
373 13 l372 0 40 -37z m4593 -12 c127 -66 170 -197 107 -326 -50 -103 -144
-150 -253 -125 -44 10 -65 22 -107 63 -75 73 -92 146 -59 256 18 61 72 121
124 138 58 18 146 15 188 -6z m-6273 -76 c14 -13 25 -36 25 -50 0 -35 -50 -85
-85 -85 -38 0 -75 41 -75 84 0 68 86 101 135 51z m1658 -225 c65 -80 121 -146
125 -148 4 -1 59 65 122 148 l115 150 108 0 108 0 -28 -37 -28 -37 2 -408 3
-408 -112 0 c-87 0 -109 3 -100 12 9 9 12 75 12 236 l0 224 -64 -79 c-35 -43
-80 -96 -99 -118 l-36 -40 -26 30 c-14 17 -56 68 -93 114 l-67 83 -3 -217 c-2
-152 1 -222 9 -231 10 -12 -8 -14 -107 -14 -92 0 -115 3 -106 12 9 9 12 113
12 405 l0 393 -36 40 -37 41 104 -3 104 -3 118 -145z m1400 -217 c103 -203
206 -403 231 -445 l44 -78 -145 0 c-127 0 -144 2 -133 15 10 12 5 30 -26 95
l-37 80 -212 0 -212 0 -36 -80 c-20 -44 -34 -87 -31 -95 5 -13 -12 -15 -122
-15 l-127 0 20 23 c23 23 313 623 313 645 0 9 -10 11 -35 6 -33 -6 -35 -5 -35
22 -1 35 -22 96 -44 126 -9 13 -23 33 -32 46 l-16 22 224 0 225 0 186 -367z
m565 275 c38 -51 113 -154 166 -229 53 -75 105 -147 116 -160 l20 -24 -2 222
-3 222 -29 30 -30 31 169 0 169 0 -30 -31 -29 -30 -3 -396 c-2 -360 -1 -397
14 -414 17 -18 14 -19 -87 -19 l-105 0 -75 103 c-42 56 -118 159 -168 230 -51
70 -96 127 -102 127 -9 0 -4 -367 6 -432 l5 -28 -127 0 c-124 0 -126 0 -109
19 16 18 17 50 14 401 l-3 381 -47 45 -47 44 124 0 123 0 70 -92z m1253 -3
l-95 -95 -148 0 -148 0 0 -265 0 -265 125 0 125 0 0 80 0 80 -65 0 -65 0 0
110 0 110 165 0 165 0 0 -219 0 -219 -62 -56 -61 -56 -208 0 -207 0 -56 62
-56 61 0 316 c0 174 3 325 6 336 3 11 31 41 62 67 l57 47 281 1 280 0 -95 -95z
m592 28 c18 -38 101 -225 183 -417 88 -205 160 -360 176 -377 l26 -29 -126 0
c-124 0 -125 0 -107 20 17 19 17 22 -13 92 l-30 73 -160 3 -160 2 -30 -77
c-22 -56 -28 -83 -21 -95 9 -17 1 -18 -112 -18 l-122 0 21 23 c12 12 46 79 76
147 29 69 79 181 111 250 31 69 70 156 86 193 l29 69 -38 -7 -38 -6 -23 74
c-12 41 -34 91 -47 111 l-25 36 156 0 155 0 33 -67z m662 -436 c-18 -40 -44
-96 -57 -124 l-25 -52 -22 22 c-11 13 -21 26 -21 30 0 3 22 53 49 111 l49 105
30 -10 30 -10 -33 -72z m235 14 c0 -10 -43 -135 -65 -188 -16 -40 -19 -42 -48
-36 -18 3 -33 7 -35 8 -1 1 17 46 41 101 24 54 46 106 50 115 4 12 13 15 31
12 14 -3 26 -9 26 -12z m-5355 -681 c43 -50 85 -96 91 -101 8 -7 37 19 100 91
l89 100 188 0 189 0 -31 -36 -32 -35 3 -635 3 -634 -40 -5 c-90 -11 -298 -26
-302 -21 -3 3 4 18 16 34 20 29 21 40 21 396 0 201 -3 366 -7 366 -5 0 -48
-45 -98 -100 l-90 -100 -93 100 c-52 55 -97 100 -101 100 -7 0 -8 -807 -1
-830 4 -11 -29 -18 -179 -37 -102 -12 -187 -20 -190 -18 -2 3 10 20 27 38 l32
33 0 658 0 658 -30 30 c-16 16 -30 31 -30 32 0 2 87 4 193 5 l192 2 80 -91z
m1614 53 c-15 -29 -19 -59 -19 -140 l0 -103 -287 -2 -288 -3 -3 -117 -3 -118
161 0 c89 0 169 4 178 9 16 8 17 -4 17 -155 0 -90 -2 -164 -4 -164 -3 0 -15
10 -29 23 -22 21 -32 22 -170 22 l-147 0 -3 -117 -3 -118 300 0 300 0 -15 -27
c-9 -20 -14 -62 -14 -140 l0 -113 -347 0 c-192 0 -393 -3 -448 -7 l-100 -6 28
32 27 33 0 588 0 589 -31 36 -31 35 475 0 475 0 -19 -37z m412 2 l-31 -36 0
-608 0 -608 -77 -7 c-42 -3 -119 -6 -172 -6 l-96 0 40 34 40 34 0 582 -1 582
-32 29 c-18 16 -32 31 -32 34 0 3 88 5 196 5 l196 0 -31 -35z m809 26 c0 -6
-4 -13 -10 -16 -6 -4 -10 -67 -10 -157 l0 -152 -28 27 -28 27 -182 0 -183 0 3
-87 3 -86 202 -91 203 -91 0 -275 0 -275 -67 -58 -67 -57 -293 0 c-161 0 -293
3 -293 6 0 3 11 15 25 26 24 19 25 24 25 134 l0 114 208 2 207 3 0 99 0 99
-165 72 c-91 39 -184 81 -207 93 l-43 22 0 265 0 264 33 25 c18 14 58 37 88
50 53 24 59 25 317 25 157 1 262 -3 262 -8z m881 -20 c-19 -26 -21 -44 -21
-167 l0 -138 -28 27 c-27 26 -33 27 -125 27 l-98 0 3 -481 3 -481 28 -23 c24
-19 26 -23 12 -29 -20 -7 -359 -8 -367 -1 -3 3 10 21 28 39 l34 34 0 471 0
471 -109 0 c-93 0 -112 -3 -134 -20 -14 -11 -27 -20 -29 -20 -3 0 -3 58 0 128
4 106 2 134 -12 160 l-17 32 426 0 426 0 -20 -29z m870 3 c-18 -23 -21 -41
-21 -140 l0 -114 -235 0 -235 0 0 -120 0 -120 131 0 c72 0 138 4 147 9 16 8
17 -4 17 -155 0 -90 -2 -164 -4 -164 -2 0 -17 11 -33 25 -29 25 -35 26 -142
23 l-111 -3 -3 -117 -3 -118 256 0 c140 0 255 -3 255 -6 0 -3 -7 -12 -15 -20
-12 -12 -15 -42 -15 -132 0 -64 -4 -123 -8 -129 -6 -10 -32 -10 -112 -3 -58 5
-237 9 -397 10 -161 0 -293 3 -293 7 0 4 12 17 26 28 l26 21 1 586 2 587 -27
28 c-16 16 -28 32 -28 36 0 4 189 7 421 7 l420 0 -20 -26z m890 -28 l66 -56 6
-127 c4 -71 7 -201 7 -290 l0 -162 -60 -70 c-33 -38 -64 -72 -69 -76 -6 -3 -4
-22 4 -48 7 -23 46 -145 85 -272 39 -126 83 -247 96 -268 l26 -39 -29 6 c-15
3 -91 15 -167 26 -77 11 -143 23 -147 27 -4 5 -26 73 -49 153 -23 80 -53 182
-67 228 l-24 82 -75 0 -74 0 0 -196 c0 -121 4 -203 11 -216 6 -11 9 -21 7 -22
-4 -4 -352 36 -358 41 -3 2 6 13 19 22 l24 19 1 607 1 607 -43 36 -43 37 393
4 394 3 65 -56z m-2866 -1456 c9 -42 52 -89 97 -110 l39 -17 -44 -17 c-53 -20
-74 -42 -92 -92 l-12 -37 -25 49 c-20 40 -34 54 -77 75 l-52 26 39 16 c46 19
77 55 93 108 13 43 24 43 34 -1z m-768 -193 c124 -75 452 -254 670 -367 l83
-42 182 92 c223 113 491 258 638 345 105 63 111 65 177 65 l68 0 -60 -39
c-103 -66 -566 -317 -785 -426 l-211 -104 -57 25 c-128 57 -767 399 -923 494
l-84 52 82 -6 c80 -6 83 -7 220 -89z m2156 83 l32 0 -35 -21 c-214 -131 -590
-341 -885 -494 -82 -43 -229 -120 -327 -171 -97 -52 -180 -94 -184 -94 -9 0
-379 194 -683 358 -338 182 -604 338 -681 401 l-25 21 44 0 c38 0 66 -13 200
-92 260 -153 391 -225 816 -443 105 -54 218 -113 252 -131 34 -19 68 -34 75
-34 8 0 66 27 129 61 62 33 191 99 284 146 203 102 396 205 600 321 236 134
329 182 343 177 8 -3 28 -5 45 -5z m-1599 -125 c90 -47 170 -92 176 -100 16
-19 34 -19 49 -1 7 8 40 29 74 47 34 17 106 56 159 86 82 46 103 54 140 51
l43 -3 -45 -29 c-69 -45 -384 -219 -396 -219 -12 0 -238 125 -369 205 l-80 48
42 0 c34 0 77 -18 207 -85z m-1395 -160 c101 -64 205 -127 232 -142 42 -24 46
-30 37 -48 -6 -11 -12 -21 -13 -23 -8 -9 -251 151 -359 236 -39 32 -83 65 -96
74 -23 16 -24 17 -4 17 11 1 103 -51 203 -114z m3305 57 c10 -17 -365 -279
-383 -268 -25 16 -6 40 73 91 46 30 87 55 90 55 3 0 49 29 103 65 102 67 109
70 117 57z"/>
<path d="M3265 7781 c-100 -26 -192 -105 -220 -190 -36 -109 -5 -242 75 -320
94 -92 231 -121 333 -72 67 32 143 113 167 178 57 152 -8 305 -161 384 -47 23
-143 34 -194 20z m89 -107 c9 -3 16 -15 16 -27 0 -19 1 -19 18 -4 16 15 21 15
37 3 16 -11 17 -17 7 -29 -10 -11 -9 -17 3 -27 12 -10 16 -9 23 9 7 21 8 21
31 -9 21 -30 22 -33 6 -50 -16 -17 -15 -19 6 -22 35 -5 36 -28 1 -28 -24 0
-31 -5 -36 -26 -4 -16 -13 -24 -24 -22 -9 1 -31 -12 -49 -30 -39 -40 -71 -41
-107 -3 -30 31 -56 31 -56 1 0 -23 -38 -37 -54 -20 -8 8 -6 15 8 26 11 8 26
14 34 14 9 0 12 6 8 16 -3 9 -6 20 -6 25 0 5 -16 9 -36 9 -31 0 -35 3 -32 22
2 14 12 24 28 28 23 6 24 7 6 17 -13 7 -16 16 -11 32 6 19 11 21 38 16 26 -6
30 -5 20 6 -20 20 -16 35 12 47 21 10 27 9 31 -3 9 -23 37 -19 29 4 -4 14 0
21 12 24 10 3 19 5 20 6 1 0 8 -2 17 -5z"/>
<path d="M3299 7577 c-45 -34 -50 -92 -13 -136 39 -46 89 -38 119 19 22 43 19
68 -14 101 -31 30 -65 37 -92 16z"/>
<path d="M6670 7551 c0 -113 10 -161 32 -161 7 0 18 -10 23 -22 13 -30 38 -29
45 2 6 25 8 25 118 28 l112 3 0 129 0 130 -165 0 -165 0 0 -109z m130 -22 c0
-29 -2 -31 -30 -27 -24 4 -30 1 -30 -14 0 -16 10 -18 95 -18 76 0 95 3 95 14
0 9 -12 16 -27 18 -22 2 -29 9 -31 31 -3 26 -2 27 43 27 l46 0 -3 -57 -3 -58
-117 -3 -118 -3 0 61 0 60 40 0 c38 0 40 -1 40 -31z"/>
<path d="M4994 7588 c-64 -44 -94 -102 -94 -180 0 -139 89 -228 230 -228 103
0 179 48 226 143 l16 32 -26 -30 c-14 -16 -25 -33 -26 -37 0 -8 -100 -68 -113
-68 -5 0 11 15 35 33 67 51 88 90 88 159 0 67 -14 99 -62 144 -51 49 -90 64
-161 64 -56 0 -71 -4 -113 -32z m101 -43 c25 -24 33 -73 19 -110 -8 -19 -55
-45 -84 -45 -33 0 -80 53 -80 90 0 22 9 41 29 61 38 37 82 39 116 4z"/>
<path d="M3955 6039 c-20 -13 -43 -19 -68 -17 -28 3 -36 0 -32 -10 3 -8 5 -64
5 -126 l0 -112 34 -12 c19 -7 48 -29 65 -48 l31 -35 0 191 c0 104 -1 190 -2
189 -2 0 -16 -9 -33 -20z"/>
<path d="M4078 5822 l-3 -198 55 34 c39 24 64 32 87 30 31 -4 31 -3 18 22 -25
49 -36 170 -20 220 5 16 2 20 -19 20 -13 0 -45 16 -70 35 l-45 34 -3 -197z"/>
<path d="M7555 5939 c-4 -6 -7 -26 -8 -44 -1 -19 -3 -32 -5 -30 -3 2 -13 0
-23 -6 -27 -14 -23 -46 7 -65 16 -11 24 -24 21 -35 -3 -9 -1 -22 2 -28 10 -15
69 -32 76 -21 3 5 22 7 43 5 47 -4 82 17 82 51 0 14 10 34 22 43 25 21 19 50
-12 58 -11 3 -24 20 -30 39 -12 37 -25 43 -87 42 -28 -1 -40 -4 -36 -12 3 -6
0 -5 -8 2 -16 15 -36 16 -44 1z m139 -61 c49 -70 -29 -155 -92 -100 -31 26
-34 53 -12 90 16 26 26 32 54 32 25 0 39 -7 50 -22z"/>
<path d="M2370 5763 c-8 -3 -25 -15 -37 -26 -22 -19 -23 -29 -23 -147 0 -177
-8 -170 180 -170 187 0 180 -7 180 166 0 143 -8 161 -80 175 -49 9 -196 11
-220 2z m250 -62 c14 -28 13 -214 -2 -229 -8 -8 -51 -12 -128 -12 -77 0 -120
4 -128 12 -8 8 -12 49 -12 120 0 91 3 108 18 117 9 6 67 11 129 11 101 0 113
-2 123 -19z"/>
<path d="M2394 5667 c-10 -26 1 -120 14 -125 9 -3 12 13 12 57 0 48 3 61 15
61 12 0 15 -13 15 -55 l0 -55 65 0 66 0 -3 63 -3 62 -88 3 c-68 2 -89 0 -93
-11z"/>
<path d="M2945 5338 c-31 -18 -44 -40 -45 -75 0 -67 77 -97 125 -48 31 30 32
66 3 99 -28 30 -57 39 -83 24z"/>
<path d="M7544 4745 c-20 -31 -17 -222 5 -248 11 -14 34 -17 135 -17 82 0 126
4 134 12 8 8 12 51 12 128 0 153 3 150 -153 150 -113 0 -117 -1 -133 -25z
m236 -25 c20 -12 28 -173 10 -195 -16 -19 -190 -21 -208 -3 -13 13 -17 189 -5
201 10 11 186 8 203 -3z"/>
<path d="M4239 4327 c-72 -160 -78 -144 51 -146 62 -1 110 2 110 7 0 5 -22 56
-50 113 -27 57 -50 110 -50 117 0 31 -18 4 -61 -91z"/>
<path d="M6940 4374 c-6 -16 -27 -64 -46 -107 -19 -43 -34 -80 -34 -82 0 -3
41 -5 90 -5 50 0 90 2 90 5 0 7 -81 209 -86 214 -2 2 -8 -9 -14 -25z"/>
<path d="M7520 3165 l0 -156 128 3 127 3 0 150 0 150 -127 3 -128 3 0 -156z"/>
</g>
</svg>
