<svg xmlns="http://www.w3.org/2000/svg" xmlns:xlink="http://www.w3.org/1999/xlink" width="1080" zoomAndPan="magnify" viewBox="0 0 810 809.999993" height="1080" preserveAspectRatio="xMidYMid meet" version="1.0"><rect x="-81" width="972" fill="#ffffff" y="-80.999999" height="971.999992" fill-opacity="1"/><rect x="-81" width="972" fill="#4a0638" y="-80.999999" height="971.999992" fill-opacity="1"/><path fill="#ffffff" d="M 0 405 L 0 810 L 810 810 L 810 0 L 0 0 Z M 463.296875 127.988281 C 465.90625 132.257812 472.15625 136.449219 477.21875 137.242188 L 480.460938 137.796875 L 476.03125 139.21875 C 467.171875 141.910156 463.058594 145.863281 459.976562 154.40625 L 458.234375 159.230469 L 456.8125 154.960938 C 453.964844 146.257812 447.554688 140.011719 440.359375 138.824219 L 437.113281 138.269531 L 441.859375 136.53125 C 444.472656 135.582031 447.953125 133.761719 449.535156 132.574219 C 452.933594 129.964844 456.890625 122.527344 457.679688 117.230469 L 458.234375 113.511719 L 459.660156 118.890625 C 460.371094 121.894531 462.03125 126.007812 463.296875 127.988281 Z M 413.304688 139.140625 C 419.554688 140.089844 416.074219 140.722656 399.460938 141.59375 C 386.570312 142.226562 370.035156 144.203125 362.441406 145.941406 C 361.257812 146.257812 360.542969 145.941406 360.226562 145.152344 C 359.910156 144.441406 359.832031 143.726562 360.070312 143.570312 C 360.703125 142.9375 378.894531 139.929688 386.09375 139.296875 C 395.507812 138.429688 408.164062 138.429688 413.304688 139.140625 Z M 308.019531 144.203125 C 308.96875 149.421875 313.875 154.25 319.964844 155.910156 L 323.128906 156.78125 L 319.726562 157.808594 C 313.398438 159.707031 309.050781 164.375 307.308594 171.253906 L 306.675781 173.628906 L 306.121094 171.652344 C 305.171875 168.328125 302.40625 163.425781 300.425781 161.605469 C 299.476562 160.65625 296.867188 159.230469 294.730469 158.363281 L 290.777344 156.859375 L 294.890625 155.515625 C 299.875 153.851562 304.144531 149.34375 305.488281 144.359375 C 306.519531 140.40625 307.308594 140.40625 308.019531 144.203125 Z M 498.417969 156.542969 C 501.027344 159.152344 501.1875 160.496094 499.527344 163.660156 C 496.597656 169.4375 487.265625 167.0625 487.265625 160.578125 C 487.265625 154.722656 494.148438 152.269531 498.417969 156.542969 Z M 434.664062 158.835938 C 454.992188 162.792969 477.613281 170.386719 494.699219 178.929688 C 501.976562 182.566406 515.582031 190.554688 516.214844 191.503906 C 516.375 191.902344 515.898438 192.851562 515.03125 193.71875 C 514.238281 194.511719 513.210938 195.855469 512.734375 196.648438 C 512.023438 197.914062 511.550781 197.753906 506.488281 194.75 C 482.359375 180.429688 445.578125 168.25 417.65625 165.402344 C 413.542969 164.925781 410.0625 164.691406 409.902344 164.847656 C 409.824219 165.007812 411.089844 168.644531 412.910156 172.835938 C 414.648438 177.109375 415.914062 180.746094 415.757812 180.984375 C 415.28125 181.460938 410.933594 172.757812 408.636719 166.589844 C 407.53125 163.820312 406.105469 160.578125 405.316406 159.390625 C 404.050781 157.414062 403.972656 157.414062 402.863281 158.996094 C 402.230469 159.863281 400.09375 164.375 398.117188 169.039062 C 392.976562 181.144531 391.316406 182.488281 395.585938 171.097656 C 396.613281 168.40625 397.246094 166.035156 397.011719 165.796875 C 396.296875 165.085938 376.839844 166.824219 370.589844 168.171875 C 359.277344 170.542969 360.308594 170.703125 359.121094 166.507812 C 358.25 163.503906 358.25 162.710938 359.121094 162.160156 C 360.386719 161.367188 375.890625 158.28125 383.246094 157.414062 C 393.132812 156.226562 425.722656 157.097656 434.664062 158.835938 Z M 218.476562 171.414062 C 219.425781 172.441406 221.324219 173.550781 222.589844 173.945312 L 225.042969 174.578125 L 222.273438 175.765625 C 218.953125 177.1875 216.421875 179.878906 215.394531 183.042969 L 214.679688 185.414062 L 212.703125 181.460938 C 211.4375 178.847656 209.855469 177.03125 207.878906 175.921875 L 204.871094 174.339844 L 208.351562 172.679688 C 211.199219 171.253906 212.070312 170.304688 213.257812 167.222656 L 214.679688 163.503906 L 215.710938 166.589844 C 216.261719 168.25 217.527344 170.464844 218.476562 171.414062 Z M 354.296875 166.273438 C 352.398438 173.074219 352.871094 172.757812 339.503906 177.109375 C 327.480469 180.984375 309.445312 189.210938 298.765625 195.699219 L 294.257812 198.464844 L 292.28125 195.539062 C 291.171875 193.957031 290.300781 192.375 290.300781 192.058594 C 290.300781 191.109375 304.539062 183.042969 316.5625 177.1875 C 327.402344 171.886719 349.707031 163.742188 353.347656 163.742188 C 354.929688 163.742188 355.007812 163.976562 354.296875 166.273438 Z M 294.257812 170.78125 C 294.257812 171.175781 291.648438 172.835938 288.5625 174.5 C 285.398438 176.082031 280.808594 178.769531 278.4375 180.273438 C 276.0625 181.777344 273.375 182.960938 272.503906 182.804688 C 268.3125 182.171875 268.785156 181.300781 276.144531 177.03125 C 289.035156 169.4375 291.171875 168.488281 292.832031 169.355469 C 293.625 169.753906 294.257812 170.386719 294.257812 170.78125 Z M 359.753906 176.316406 C 361.019531 178.53125 364.421875 180.429688 367.742188 180.90625 C 371.933594 181.460938 371.539062 182.726562 366.792969 183.910156 C 362.207031 185.097656 360.226562 186.757812 359.121094 190.554688 C 358.566406 192.136719 358.011719 193.957031 357.777344 194.589844 C 357.539062 195.300781 356.984375 194.433594 356.351562 192.375 C 354.769531 187.15625 353.1875 185.335938 348.835938 183.753906 L 344.804688 182.25 L 349.152344 180.90625 C 354.058594 179.324219 355.71875 177.503906 356.511719 172.835938 L 356.984375 169.671875 L 358.09375 172.441406 C 358.644531 173.945312 359.4375 175.765625 359.753906 176.316406 Z M 485.207031 189.210938 C 485.445312 190.238281 485.683594 191.742188 485.683594 192.691406 C 485.683594 195.066406 487.898438 196.804688 492.882812 198.230469 L 497.152344 199.574219 L 493.988281 200.601562 C 487.660156 202.816406 485.761719 204.792969 484.496094 210.570312 C 483.863281 213.734375 482.835938 213.257812 481.808594 209.382812 C 480.382812 204.003906 476.980469 200.917969 472.316406 200.917969 C 468.992188 200.917969 469.785156 200.046875 474.6875 198.230469 C 479.355469 196.566406 480.9375 194.75 481.492188 190.714844 C 481.808594 188.339844 482.28125 187.472656 483.308594 187.472656 C 484.101562 187.472656 484.890625 188.261719 485.207031 189.210938 Z M 275.429688 190.792969 C 281.363281 193.5625 286.347656 198.230469 289.589844 204.242188 C 292.199219 209.066406 292.28125 209.539062 292.28125 217.925781 C 292.28125 225.203125 291.964844 227.257812 290.539062 230.34375 C 288.167969 235.644531 282.074219 241.8125 276.460938 244.660156 C 272.109375 246.957031 271.082031 247.191406 264.199219 247.191406 C 257.476562 247.191406 256.210938 246.957031 251.9375 244.898438 C 246.003906 241.972656 240.074219 236.515625 237.621094 231.6875 C 229 214.601562 238.332031 193.640625 256.605469 188.972656 C 261.429688 187.707031 270.605469 188.65625 275.429688 190.792969 Z M 551.652344 190.953125 C 557.347656 193.71875 563.441406 200.363281 565.179688 205.742188 C 567.078125 211.28125 566.445312 221.167969 563.992188 226.390625 C 559.800781 235.328125 551.257812 240.707031 541.054688 240.785156 C 535.832031 240.863281 534.410156 240.546875 529.820312 238.253906 C 523.414062 235.089844 518.035156 229.316406 515.664062 223.066406 C 513.449219 217.292969 513.84375 208.511719 516.453125 203.292969 C 518.589844 199.097656 523.808594 193.402344 527.210938 191.664062 C 534.804688 187.628906 544.296875 187.3125 551.652344 190.953125 Z M 417.894531 196.882812 C 424.617188 200.128906 430.550781 205.902344 433.316406 211.753906 C 436.324219 218.242188 436.796875 229.316406 434.265625 235.960938 C 432.132812 241.65625 428.652344 246.324219 423.589844 250.121094 C 408.480469 261.589844 384.90625 256.210938 376.601562 239.597656 C 373.121094 232.636719 372.171875 227.101562 373.28125 220.296875 C 375.019531 210.015625 379.6875 202.976562 388.152344 197.992188 C 393.847656 194.667969 397.644531 193.800781 405.472656 194.035156 C 411.722656 194.195312 413.382812 194.589844 417.894531 196.882812 Z M 334.441406 216.183594 C 335.390625 217.054688 337.527344 217.847656 339.660156 218.082031 C 344.25 218.636719 344.328125 219.585938 339.742188 220.21875 C 334.914062 221.011719 333.015625 222.75 331.832031 227.8125 C 331.117188 230.738281 330.722656 231.453125 330.722656 229.949219 C 330.566406 225.914062 328.507812 222.277344 325.582031 221.089844 C 324 220.457031 321.941406 219.902344 320.992188 219.824219 C 319.808594 219.824219 320.597656 219.269531 323.289062 218.242188 C 328.429688 216.265625 330.644531 213.652344 330.722656 209.304688 L 330.800781 206.058594 L 331.832031 210.332031 C 332.464844 212.703125 333.570312 215.316406 334.441406 216.183594 Z M 597.453125 236.355469 C 604.574219 245.691406 607.5 250.515625 606.945312 252.019531 C 606.707031 252.652344 606.3125 253.125 605.996094 253.125 C 605.679688 253.125 601.882812 248.539062 597.691406 242.84375 C 593.417969 237.226562 586.695312 229.078125 582.742188 224.886719 C 576.414062 218.164062 575.464844 216.816406 575.699219 214.761719 C 576.015625 212.386719 576.097656 212.546875 583.609375 220.296875 C 587.882812 224.648438 594.050781 231.925781 597.453125 236.355469 Z M 227.8125 220.929688 C 227.8125 222.117188 225.042969 226.074219 220.140625 231.847656 C 215.945312 236.832031 210.804688 243.554688 208.667969 246.796875 C 204.636719 252.886719 203.054688 253.996094 202.65625 251.070312 C 202.261719 248.222656 212.941406 233.351562 222.988281 222.828125 C 227.019531 218.636719 227.8125 218.320312 227.8125 220.929688 Z M 586.0625 245.136719 C 596.503906 258.820312 607.261719 277.410156 613.117188 291.886719 C 620.472656 310 624.585938 327.164062 623.003906 333.414062 C 622.449219 335.46875 622.449219 335.46875 620.15625 334.046875 C 617.546875 332.542969 617.230469 331.832031 618.96875 331.121094 C 619.839844 330.804688 619.996094 330.011719 619.679688 328.113281 C 617.863281 317.59375 610.980469 298.132812 603.941406 283.578125 C 598.324219 271.953125 591.203125 260.878906 579.339844 245.136719 C 571.507812 234.617188 571.269531 234.21875 572.535156 232.480469 L 573.800781 230.738281 L 577.597656 234.851562 C 579.734375 237.226562 583.53125 241.8125 586.0625 245.136719 Z M 232.953125 239.679688 C 233.269531 240.628906 231.53125 243.554688 227.574219 248.855469 C 213.730469 267.523438 201.074219 290.066406 194.589844 307.308594 C 192.929688 311.660156 190.082031 321.152344 188.261719 328.507812 C 185.175781 340.53125 184.703125 341.796875 182.960938 342.195312 C 181.933594 342.511719 180.824219 342.511719 180.589844 342.273438 C 179.875 341.480469 185.019531 320.679688 188.894531 308.890625 C 195.378906 289.039062 209.777344 262.855469 224.570312 243.792969 C 229.15625 237.859375 230.5 236.59375 231.371094 237.304688 C 232.003906 237.859375 232.714844 238.886719 232.953125 239.679688 Z M 317.988281 250.910156 C 350.65625 270.449219 370.351562 284.765625 387.042969 301.21875 C 395.191406 309.289062 397.644531 312.925781 390.445312 306.28125 C 388.070312 304.144531 382.296875 299.875 377.550781 296.710938 C 368.136719 290.460938 367.820312 290.066406 383.246094 304.460938 L 390.367188 311.105469 L 385.222656 307.546875 C 378.5 302.878906 361.492188 292.675781 360.464844 292.675781 C 359.992188 292.675781 363.15625 295.050781 367.503906 297.898438 C 374.464844 302.484375 380.714844 307.707031 379.210938 307.707031 C 378.976562 307.707031 374.386719 305.492188 369.085938 302.722656 C 363.867188 299.953125 354.53125 295.445312 348.441406 292.675781 C 334.046875 286.191406 332.226562 285.476562 332.226562 285.875 C 332.226562 286.109375 337.445312 288.878906 343.933594 292.042969 C 361.96875 301.0625 375.890625 309.289062 373.121094 309.289062 C 372.964844 309.289062 367.980469 307.390625 362.125 305.015625 C 350.972656 300.585938 336.179688 295.523438 335.628906 296.078125 C 335.390625 296.394531 351.289062 303.910156 364.339844 309.683594 L 369.246094 311.820312 L 369.71875 339.582031 C 369.957031 354.929688 370.433594 376.683594 370.667969 387.992188 C 370.984375 399.304688 370.984375 408.402344 370.75 408.164062 C 370.511719 407.925781 369.800781 388.863281 369.085938 365.84375 C 368.375 342.746094 367.585938 322.023438 367.347656 319.730469 C 366.871094 315.617188 366.792969 315.457031 363.234375 313.875 C 357.933594 311.660156 315.378906 295.839844 304.9375 292.28125 C 300.191406 290.621094 289.195312 286.824219 280.574219 283.738281 C 271.949219 280.730469 264.753906 278.4375 264.59375 278.597656 C 264.355469 278.753906 264.910156 283.894531 265.78125 289.988281 C 271.398438 330.566406 274.640625 356.984375 274.402344 360.625 C 274.164062 364.261719 268.390625 332.386719 265.070312 309.289062 C 263.722656 299.953125 261.90625 288.089844 261.113281 283.027344 C 260.324219 277.882812 259.847656 273.535156 260.085938 273.296875 C 261.191406 272.1875 266.335938 273.296875 278.277344 277.171875 C 285.554688 279.546875 295.917969 282.789062 301.296875 284.371094 C 306.675781 285.953125 311.660156 287.457031 312.371094 287.691406 C 313.242188 288.007812 313.398438 287.929688 312.847656 287.375 C 311.738281 286.347656 293.230469 278.515625 284.210938 275.273438 L 276.933594 272.742188 L 278.199219 270.210938 C 278.832031 268.867188 279.542969 267.679688 279.625 267.523438 C 279.859375 267.285156 299.003906 273.851562 303.671875 275.75 C 308.96875 277.964844 306.835938 276.222656 298.6875 271.792969 L 290.460938 267.285156 L 291.171875 264.832031 C 291.488281 263.488281 291.964844 262.300781 292.121094 262.144531 C 292.28125 261.984375 299.875 264.992188 308.96875 268.867188 C 343.300781 283.5 349.945312 286.269531 350.261719 286.03125 C 350.816406 285.476562 333.492188 275.90625 318.621094 268.628906 L 302.957031 260.957031 L 302.957031 251.464844 C 302.957031 246.242188 303.195312 242.128906 303.589844 242.289062 C 303.90625 242.527344 310.394531 246.402344 317.988281 250.910156 Z M 505.378906 252.097656 C 505.140625 260.085938 504.824219 262.144531 503.875 262.460938 C 503.242188 262.695312 493.671875 267.441406 482.675781 273.058594 C 465.195312 281.917969 451.667969 289.75 451.667969 290.855469 C 451.667969 291.09375 452.855469 290.460938 454.28125 289.511719 C 457.363281 287.457031 466.9375 282.867188 473.421875 280.414062 C 476.03125 279.386719 481.175781 277.171875 484.890625 275.433594 C 492.011719 272.109375 515.425781 262.617188 516.375 262.617188 C 516.929688 262.617188 519.144531 267.523438 518.667969 267.757812 C 518.589844 267.839844 514.714844 269.894531 510.046875 272.425781 C 505.300781 274.878906 501.503906 277.015625 501.503906 277.171875 C 501.503906 277.410156 528.238281 268.390625 529.1875 267.757812 C 529.902344 267.363281 531.800781 272.109375 531.167969 272.742188 C 530.929688 272.980469 527.289062 274.484375 523.019531 276.066406 C 513.84375 279.546875 494.226562 288.007812 494.621094 288.40625 C 494.859375 288.722656 496.597656 288.167969 524.285156 279.308594 C 535.359375 275.75 545.40625 272.902344 546.75 272.902344 C 548.886719 272.902344 549.042969 273.058594 548.648438 275.035156 C 548.410156 276.300781 546.90625 286.109375 545.40625 297.027344 C 542.636719 316.25 536.386719 354.296875 534.804688 361.496094 L 534.015625 365.054688 L 534.332031 360.703125 C 534.964844 353.1875 538.601562 322.417969 541.527344 300.269531 C 543.03125 288.640625 544.140625 278.914062 543.980469 278.675781 C 543.742188 278.515625 541.6875 279.070312 539.394531 279.941406 C 537.019531 280.730469 524.601562 285.160156 511.785156 289.75 C 498.972656 294.335938 482.597656 300.269531 475.398438 302.960938 C 468.203125 305.648438 458.15625 309.445312 453.015625 311.34375 C 447.871094 313.242188 443.046875 315.140625 442.257812 315.617188 C 440.992188 316.25 440.753906 318.148438 440.277344 332.78125 C 438.378906 393.6875 437.511719 404.921875 437.90625 365.84375 C 438.144531 348.441406 438.460938 329.140625 438.695312 322.972656 L 439.171875 311.820312 L 442.808594 310.394531 C 448.109375 308.417969 471.523438 297.265625 471.128906 296.867188 C 470.96875 296.710938 463.058594 299.398438 453.566406 302.878906 C 444.074219 306.359375 436.164062 309.050781 436.007812 308.890625 C 435.53125 308.417969 441.78125 304.699219 456.8125 296.472656 C 464.640625 292.203125 470.734375 288.722656 470.417969 288.722656 C 470.019531 288.722656 464.484375 291.09375 458.15625 293.941406 C 447.476562 298.765625 444.3125 300.269531 431.894531 307.152344 C 429.519531 308.417969 428.097656 308.972656 428.730469 308.339844 C 431.816406 305.175781 440.753906 298.214844 445.578125 295.128906 C 448.503906 293.230469 450.878906 291.488281 450.878906 291.332031 C 450.878906 290.460938 423.507812 306.914062 419.792969 310 C 416.945312 312.371094 417.023438 312.136719 420.820312 308.179688 C 423.191406 305.648438 428.335938 300.902344 432.132812 297.738281 C 435.929688 294.496094 438.777344 291.886719 438.460938 291.886719 C 437.195312 291.886719 425.804688 299.636719 419.316406 304.859375 C 413.542969 309.523438 412.988281 309.839844 415.046875 307.230469 C 422.085938 298.371094 439.726562 283.976562 459.976562 270.527344 C 467.410156 265.625 473.976562 261.195312 474.609375 260.5625 C 476.429688 258.980469 504.113281 242.050781 504.90625 242.050781 C 505.300781 242.050781 505.457031 246.558594 505.378906 252.097656 Z M 566.921875 250.910156 C 572.851562 257.160156 588.59375 280.097656 595 291.964844 C 597.613281 296.789062 607.5 325.1875 607.5 327.875 C 607.5 328.746094 606.550781 329.0625 603.703125 329.0625 C 600.933594 329.0625 598.402344 329.773438 594.921875 331.515625 C 589.464844 334.285156 586.773438 337.527344 584.480469 344.328125 L 583.058594 348.441406 L 567.632812 348.679688 C 554.183594 348.839844 552.128906 348.679688 552.128906 347.652344 C 552.128906 346.625 554.105469 346.464844 565.972656 346.464844 C 577.519531 346.464844 579.8125 346.308594 579.8125 345.359375 C 579.8125 344.726562 579.496094 343.933594 579.023438 343.695312 C 578.628906 343.460938 578.230469 342.273438 578.230469 341.085938 C 578.230469 339.425781 579.734375 337.527344 584.71875 332.703125 C 591.441406 326.375 593.5 325.109375 596.898438 325.109375 C 598.480469 325.109375 598.796875 324.710938 598.796875 322.734375 C 598.796875 321.46875 598.085938 318.621094 597.214844 316.328125 C 596.265625 314.113281 595.632812 310.949219 595.792969 309.289062 C 595.871094 307.230469 595.160156 305.09375 593.417969 301.851562 C 591.996094 299.398438 590.570312 296.078125 590.253906 294.417969 C 589.542969 291.09375 588.277344 290.539062 580.84375 290.382812 C 577.046875 290.304688 576.730469 290.460938 575.226562 292.992188 C 574.355469 294.417969 572.140625 296.472656 570.242188 297.5 C 567.789062 298.847656 566.207031 300.507812 564.941406 302.960938 C 563.519531 305.808594 562.808594 306.441406 561.382812 306.28125 C 560.433594 306.125 559.484375 305.886719 559.328125 305.726562 C 559.089844 305.410156 563.914062 299.003906 564.941406 298.214844 C 565.257812 297.976562 565.023438 295.917969 564.390625 293.625 C 563.359375 289.589844 563.359375 289.433594 565.023438 288.722656 C 565.972656 288.40625 570.003906 286.824219 573.882812 285.242188 C 577.835938 283.738281 580.921875 282.078125 580.761719 281.601562 C 580.367188 279.941406 569.53125 264.277344 563.992188 257.398438 L 558.457031 250.4375 L 560.671875 249.011719 C 561.859375 248.222656 562.964844 247.589844 563.203125 247.589844 C 563.441406 247.589844 565.101562 249.089844 566.921875 250.910156 Z M 245.054688 257.082031 C 244.898438 257.316406 242.761719 260.5625 240.230469 264.359375 C 236.433594 270.132812 235.011719 272.902344 235.960938 272.902344 C 236.039062 272.902344 239.597656 274.167969 243.949219 275.667969 L 251.78125 278.515625 L 251.226562 274.402344 C 250.910156 272.109375 250.433594 269.261719 250.199219 268.074219 C 249.722656 265.386719 249.882812 265.386719 260.640625 266.492188 C 264.121094 266.890625 267.519531 266.890625 268.234375 266.492188 C 268.945312 266.175781 271 263.882812 272.820312 261.511719 L 276.222656 257.160156 L 281.285156 259.691406 C 284.054688 261.035156 286.347656 262.617188 286.347656 263.171875 C 286.347656 264.515625 285.792969 264.4375 281.285156 262.933594 C 279.226562 262.222656 277.488281 261.746094 277.328125 261.90625 C 277.25 262.0625 275.90625 263.960938 274.480469 266.019531 C 271.871094 269.738281 271.632812 269.816406 268.945312 269.183594 C 267.441406 268.867188 264.121094 268.550781 261.589844 268.550781 C 257.632812 268.550781 256.683594 268.867188 255.339844 270.527344 C 254.46875 271.554688 253.914062 273.136719 254.152344 274.085938 C 256.289062 283.738281 258.976562 297.105469 261.035156 308.496094 C 262.378906 316.089844 264.910156 329.617188 266.652344 338.554688 C 269.261719 352.160156 277.960938 403.734375 279.542969 415.046875 C 280.019531 418.289062 279.941406 418.449219 278.042969 418.449219 C 276.933594 418.449219 276.0625 418.210938 276.0625 417.972656 C 276.0625 415.757812 265.386719 353.1875 260.640625 327.875 C 257.394531 310.472656 254.390625 293.863281 253.914062 291.015625 L 252.964844 285.714844 L 242.761719 281.996094 C 237.144531 279.863281 232.398438 278.359375 232.320312 278.515625 C 232.164062 278.675781 231.054688 280.574219 229.789062 282.710938 L 227.574219 286.585938 L 225.753906 283.578125 C 224.09375 280.8125 224.015625 280.335938 225.121094 278.359375 C 226.703125 275.195312 226.625 274.878906 223.066406 273.296875 C 218.792969 271.398438 219.425781 270.054688 224.410156 270.371094 L 228.367188 270.527344 L 231.371094 266.019531 C 233.03125 263.488281 235.800781 259.769531 237.460938 257.632812 L 240.625 253.917969 L 242.921875 255.261719 C 244.1875 256.050781 245.136719 256.84375 245.054688 257.082031 Z M 465.117188 260.878906 C 464.089844 261.667969 456.257812 267.441406 447.714844 273.769531 C 426.355469 289.75 415.597656 299.636719 407.609375 310.394531 C 404.761719 314.113281 405.394531 310.871094 408.480469 305.570312 C 414.886719 294.652344 422.402344 287.375 448.503906 267.046875 L 463.140625 255.578125 L 465.117188 257.632812 L 467.09375 259.613281 Z M 355.246094 263.410156 C 373.359375 277.726562 385.539062 288.484375 391.550781 295.367188 C 397.960938 302.5625 403.023438 310.472656 400.726562 309.605469 C 400.015625 309.367188 399.621094 308.890625 399.699219 308.574219 C 399.777344 308.257812 394.953125 303.277344 389.019531 297.5 C 377.867188 286.664062 369.007812 279.386719 352.398438 267.601562 C 347.175781 263.804688 342.589844 260.480469 342.191406 260.164062 C 341.558594 259.613281 344.488281 256.367188 345.753906 256.289062 C 345.988281 256.289062 350.261719 259.53125 355.246094 263.410156 Z M 536.386719 262.617188 C 540.421875 267.285156 540.660156 267.441406 543.742188 267.046875 C 545.5625 266.808594 549.519531 266.414062 552.601562 266.175781 L 558.21875 265.703125 L 556.636719 275.828125 C 554.660156 289.433594 550.230469 315.773438 542.714844 359.121094 C 539.3125 378.898438 535.675781 400.332031 534.726562 406.742188 L 532.984375 418.449219 L 528.636719 418.449219 L 530.058594 409.113281 C 533.855469 384.988281 536.863281 366.953125 541.132812 343.695312 C 543.742188 329.773438 546.511719 313.953125 547.382812 308.496094 C 548.332031 303.039062 550.070312 293.152344 551.335938 286.507812 C 554.34375 271.160156 554.34375 270.921875 551.179688 269.261719 C 548.726562 267.996094 544.773438 268.074219 538.679688 269.339844 C 537.097656 269.738281 536.386719 269.261719 534.882812 267.207031 C 530.769531 261.195312 531.324219 261.511719 527.371094 263.25 C 523.730469 264.832031 522.859375 264.753906 522.859375 262.933594 C 522.859375 262.144531 529.820312 258.1875 531.71875 257.949219 C 532.035156 257.871094 534.09375 260.007812 536.386719 262.617188 Z M 225.914062 292.753906 C 227.179688 294.179688 231.53125 296 236.117188 297.105469 C 238.410156 297.582031 238.332031 297.660156 234.21875 298.765625 C 231.925781 299.398438 229.234375 300.429688 228.207031 301.0625 C 226.546875 302.167969 223.144531 308.023438 221.800781 312.054688 C 221.40625 313.320312 221.089844 312.925781 220.21875 310.078125 C 218.636719 304.777344 215.472656 301.535156 210.410156 299.796875 C 208.035156 299.003906 206.136719 298.054688 206.21875 297.660156 C 206.296875 297.34375 207.957031 296.550781 209.933594 296 C 214.601562 294.652344 217.84375 291.570312 219.585938 286.585938 L 221.007812 282.472656 L 222.828125 286.902344 C 223.855469 289.355469 225.203125 292.042969 225.914062 292.753906 Z M 321.941406 322.578125 C 324.472656 328.351562 330.167969 333.492188 334.914062 334.203125 C 336.894531 334.519531 339.820312 334.601562 341.324219 334.441406 C 342.824219 334.285156 344.089844 334.203125 344.089844 334.203125 C 344.089844 334.285156 343.617188 335.390625 342.984375 336.65625 C 340.214844 342.273438 340.292969 342.511719 347.96875 347.257812 C 351.84375 349.628906 354.929688 351.6875 354.847656 351.84375 C 354.691406 351.921875 351.765625 350.972656 348.363281 349.628906 C 344.960938 348.363281 341.71875 347.257812 341.242188 347.257812 C 339.34375 347.257812 338.949219 358.882812 340.609375 364.738281 C 340.925781 365.84375 340.453125 366.003906 337.605469 365.6875 C 330.40625 364.976562 323.683594 371.304688 322.339844 380.082031 C 321.152344 388.152344 320.992188 388.308594 319.964844 382.457031 C 316.722656 364.261719 306.519531 355.085938 294.652344 359.597656 C 293.703125 359.992188 294.019531 359.042969 295.839844 356.117188 C 297.183594 353.902344 298.527344 350.816406 298.765625 349.3125 C 299.160156 346.625 298.84375 346.070312 292.992188 339.582031 L 286.742188 332.703125 L 290.699219 334.996094 C 292.914062 336.261719 295.839844 338 297.34375 338.871094 L 299.953125 340.375 L 299.398438 337.683594 C 298.292969 332.464844 295.046875 326.609375 290.539062 321.785156 L 285.953125 316.960938 L 290.300781 319.492188 C 292.675781 320.914062 297.261719 323.367188 300.507812 324.871094 L 306.28125 327.71875 L 308.96875 326.292969 C 311.898438 324.710938 314.664062 321.074219 317.355469 315.21875 L 319.09375 311.265625 L 319.648438 314.902344 C 319.964844 316.882812 320.992188 320.28125 321.941406 322.578125 Z M 431.101562 316.722656 C 431.101562 319.332031 429.046875 320.835938 422.324219 323.289062 C 417.023438 325.1875 415.363281 325.425781 405 325.425781 C 394.320312 325.503906 393.054688 325.34375 386.570312 323.128906 C 379.527344 320.757812 376.523438 318.859375 376.523438 316.722656 C 376.523438 314.585938 378.816406 314.585938 380.636719 316.722656 C 383.484375 320.046875 392.183594 322.8125 401.203125 323.289062 C 413.464844 324 426.121094 320.757812 428.414062 316.25 C 429.757812 313.71875 431.101562 313.953125 431.101562 316.722656 Z M 246.875 315.617188 C 248.617188 316.644531 250.75 320.441406 250.75 322.734375 C 250.75 325.582031 247.269531 328.273438 243.632812 328.273438 C 239.441406 328.273438 237.304688 326.136719 237.304688 322.023438 C 237.304688 316.328125 242.050781 313.085938 246.875 315.617188 Z M 210.015625 319.492188 C 209.699219 320.203125 208.273438 325.34375 206.851562 331.039062 L 204.238281 341.324219 L 202.023438 341.085938 C 200.757812 340.929688 199.492188 340.613281 199.175781 340.296875 C 198.703125 339.820312 203.371094 319.730469 204.320312 318.148438 C 204.554688 317.832031 206.058594 317.671875 207.640625 317.832031 C 209.933594 318.066406 210.410156 318.464844 210.015625 319.492188 Z M 389.179688 327.558594 C 399.621094 330.328125 415.914062 329.617188 425.011719 325.976562 C 426.277344 325.503906 427.464844 325.109375 427.703125 325.109375 C 428.570312 325.109375 427.542969 344.804688 426.59375 345.832031 C 425.804688 346.625 425.566406 345.121094 425.566406 338.316406 C 425.566406 333.652344 425.488281 329.855469 425.40625 329.855469 C 425.25 329.855469 423.191406 330.644531 420.820312 331.59375 C 417.578125 332.859375 414.097656 333.335938 407.054688 333.652344 C 397.011719 334.046875 391 333.175781 385.855469 330.566406 L 382.851562 329.0625 L 382.851562 337.367188 C 382.851562 341.957031 382.535156 345.675781 382.140625 345.675781 C 381.109375 345.675781 380.636719 343.0625 380.003906 333.492188 L 379.449219 324.871094 L 381.347656 325.425781 C 382.375 325.742188 385.9375 326.691406 389.179688 327.558594 Z M 521.277344 327.71875 C 521.277344 328.351562 520.566406 330.804688 519.777344 333.253906 C 514.398438 348.757812 496.679688 359.914062 480.699219 357.855469 C 472.949219 356.828125 463.535156 352.714844 459.976562 348.839844 C 458.867188 347.574219 460.449219 348.125 466.304688 350.972656 L 474.214844 354.769531 L 484.101562 354.769531 C 493.75 354.769531 494.148438 354.691406 499.367188 352.160156 C 508.148438 347.808594 515.425781 338.949219 519.144531 328.035156 C 519.695312 326.453125 521.277344 326.214844 521.277344 327.71875 Z M 510.285156 338.160156 C 507.355469 344.011719 503.007812 348.207031 496.835938 351.132812 C 492.960938 352.953125 491.457031 353.1875 484.496094 353.1875 C 477.695312 353.109375 475.875 352.792969 471.285156 350.894531 C 464.957031 348.285156 462.664062 346.226562 466.777344 346.941406 C 468.675781 347.257812 469.152344 347.175781 468.359375 346.625 C 467.570312 346.070312 469.230469 345.359375 474.292969 344.171875 C 478.167969 343.300781 483.308594 341.796875 485.683594 340.847656 C 488.054688 339.898438 491.617188 338.714844 493.515625 338.160156 L 496.914062 337.050781 L 496.441406 339.425781 C 496.203125 340.769531 495.253906 342.90625 494.304688 344.25 L 492.566406 346.625 L 495.097656 345.277344 C 497.46875 344.09375 502.292969 337.683594 502.292969 335.785156 C 502.292969 335.3125 504.507812 333.808594 507.277344 332.464844 C 511.945312 330.171875 512.183594 330.089844 512.417969 331.59375 C 512.578125 332.464844 511.628906 335.390625 510.285156 338.160156 Z M 612.878906 335.867188 C 617.625 338.792969 620.15625 343.539062 620.15625 349.390625 C 620.15625 354.296875 619.046875 357.144531 615.804688 360.230469 C 611.136719 364.660156 604.808594 365.84375 598.957031 363.394531 C 591.363281 360.230469 587.328125 352.398438 589.304688 344.726562 C 590.652344 339.664062 593.417969 336.5 598.164062 334.679688 C 603.542969 332.542969 607.972656 332.9375 612.878906 335.867188 Z M 651.558594 335.707031 C 653.300781 337.210938 653.773438 338.238281 653.773438 340.929688 C 653.773438 345.359375 650.847656 348.046875 645.941406 348.046875 C 640.878906 348.046875 637.398438 343.539062 639.0625 339.109375 C 641.117188 333.730469 647.289062 332.070312 651.558594 335.707031 Z M 205.742188 348.285156 C 210.015625 350.023438 215.628906 356.828125 216.738281 361.574219 C 218.792969 369.957031 216.105469 378.421875 209.855469 383.5625 C 198.941406 392.582031 182.171875 388.308594 177.1875 375.335938 C 176 372.253906 176 361.8125 177.1875 358.726562 C 181.300781 347.96875 193.957031 343.300781 205.742188 348.285156 Z M 242.683594 353.347656 L 242.921875 355.957031 L 221.089844 355.957031 L 218.875 353.1875 L 216.660156 350.339844 L 229.550781 350.578125 L 242.445312 350.816406 Z M 395.113281 356.035156 C 405.394531 357.460938 420.976562 355.484375 426.910156 352.003906 C 430.074219 350.105469 430.3125 350.972656 427.386719 353.742188 C 423.273438 357.617188 417.894531 358.726562 403.8125 358.726562 C 392.582031 358.726562 390.683594 358.488281 386.726562 356.90625 C 382.457031 355.167969 378.894531 352.636719 378.894531 351.210938 C 378.894531 350.816406 381.109375 351.527344 383.878906 352.792969 C 386.726562 354.136719 391.394531 355.484375 395.113281 356.035156 Z M 157.964844 356.117188 C 159.230469 357.300781 159.785156 358.726562 159.785156 360.625 C 159.707031 367.269531 152.664062 369.957031 148.710938 364.894531 C 143.804688 358.648438 152.191406 350.65625 157.964844 356.117188 Z M 385.621094 362.363281 C 389.335938 364.183594 390.285156 364.261719 403.8125 364.261719 C 416.785156 364.261719 418.445312 364.105469 422.402344 362.445312 C 424.773438 361.496094 426.988281 360.703125 427.304688 360.703125 C 427.859375 360.703125 427.386719 373.203125 426.671875 377.867188 C 425.882812 382.929688 425.171875 380.320312 425.171875 372.570312 C 425.171875 368.21875 425.011719 364.738281 424.773438 364.894531 C 415.28125 370.511719 396.851562 371.460938 387.4375 366.792969 C 383.722656 364.976562 383.722656 364.976562 383.324219 366.558594 C 383.089844 367.507812 382.851562 370.90625 382.851562 374.152344 C 382.851562 377.949219 382.535156 379.6875 382.140625 378.898438 C 381.191406 377.234375 380.082031 359.597656 380.953125 360.070312 C 381.347656 360.230469 383.484375 361.257812 385.621094 362.363281 Z M 569.925781 372.570312 C 571.113281 374.863281 576.175781 378.105469 578.628906 378.105469 C 580.921875 378.105469 579.8125 379.449219 576.808594 380.320312 C 572.933594 381.507812 569.769531 384.828125 568.503906 389.257812 L 567.394531 392.738281 L 566.367188 389.257812 C 564.941406 384.828125 561.621094 381.585938 557.113281 380.242188 L 553.550781 379.214844 L 557.113281 377.789062 C 562.726562 375.652344 564.625 373.753906 566.128906 368.773438 L 567.472656 364.261719 L 568.105469 367.269531 C 568.421875 368.929688 569.292969 371.304688 569.925781 372.570312 Z M 261.824219 371.699219 C 261.824219 373.203125 261.035156 373.28125 242.445312 373.359375 C 226.546875 373.359375 223.066406 373.203125 223.066406 372.332031 C 223.066406 371.699219 223.304688 370.988281 223.621094 370.75 C 223.855469 370.433594 232.636719 370.195312 243 370.195312 C 261.113281 370.195312 261.824219 370.273438 261.824219 371.699219 Z M 633.917969 383.40625 C 634.550781 384.671875 637.082031 387.675781 639.535156 390.050781 L 643.964844 394.402344 L 640.089844 396.851562 C 637.003906 398.75 635.660156 400.332031 633.761719 404.128906 C 632.417969 406.820312 631.070312 410.617188 630.753906 412.59375 C 630.359375 415.285156 629.964844 416.074219 628.9375 415.917969 C 628.066406 415.757812 627.511719 414.414062 627.195312 411.328125 C 626.5625 405.554688 624.824219 401.679688 620.945312 397.328125 C 619.207031 395.351562 617.78125 393.371094 617.78125 392.898438 C 617.78125 392.421875 619.679688 390.050781 622.054688 387.597656 C 626.246094 383.167969 628.855469 377.632812 628.855469 372.964844 C 628.855469 369.089844 630.121094 370.433594 631.386719 375.652344 C 632.101562 378.660156 633.285156 382.21875 633.917969 383.40625 Z M 613.828125 388.625 C 613.828125 397.089844 613.433594 406.976562 613.035156 410.617188 C 611.691406 421.375 612.007812 420.742188 607.5 420.664062 C 600.617188 420.664062 595.792969 422.796875 590.335938 428.492188 C 587.566406 431.339844 585.113281 433.398438 584.796875 433.238281 C 584.402344 433.003906 584.324219 431.105469 584.402344 428.890625 L 584.71875 425.011719 L 592.3125 421.296875 C 597.214844 419 601.09375 417.65625 602.910156 417.65625 C 604.890625 417.65625 606.074219 417.183594 606.628906 416.234375 C 607.738281 414.175781 609.082031 397.011719 609.082031 385.304688 C 609.082031 376.367188 609.238281 374.941406 610.503906 374.230469 C 613.75 372.332031 613.828125 372.648438 613.828125 388.625 Z M 237.382812 381.824219 C 237.382812 383.5625 241.734375 387.125 242.445312 386.015625 C 242.683594 385.621094 243.789062 385.226562 244.898438 385.226562 C 247.269531 385.226562 247.429688 387.203125 245.214844 389.972656 C 243.238281 392.503906 243.238281 393.609375 245.214844 396.0625 C 247.035156 398.355469 246.242188 400.253906 243.472656 400.253906 C 241.339844 400.253906 238.09375 402.628906 237.226562 404.761719 C 236.355469 407.136719 234.296875 407.136719 233.664062 404.683594 C 233.269531 402.945312 230.5 401.046875 228.367188 401.046875 C 227.8125 401.046875 226.386719 400.175781 225.042969 399.148438 L 222.671875 397.25 L 224.648438 396.300781 C 227.257812 395.113281 227.8125 390.839844 225.4375 390.207031 C 224.332031 389.890625 223.855469 389.101562 223.855469 387.519531 C 223.855469 384.671875 225.042969 383.960938 227.257812 385.460938 C 228.917969 386.492188 229.234375 386.410156 231.609375 384.511719 C 232.953125 383.328125 234.140625 381.902344 234.140625 381.429688 C 234.140625 379.847656 237.304688 380.320312 237.382812 381.824219 Z M 383.007812 386.808594 C 391.867188 392.027344 415.28125 392.027344 425.488281 386.886719 C 429.125 384.988281 429.835938 385.859375 426.671875 388.308594 C 421.058594 392.738281 404.367188 395.035156 394.164062 392.898438 C 386.964844 391.316406 381.664062 389.023438 380.558594 386.886719 C 379.449219 384.828125 379.6875 384.828125 383.007812 386.808594 Z M 602.59375 392.738281 L 602.4375 394.71875 L 587.960938 394.71875 C 579.972656 394.71875 573.484375 394.480469 573.484375 394.242188 C 573.484375 394.003906 573.882812 393.136719 574.277344 392.265625 C 575.066406 390.839844 576.097656 390.761719 588.910156 390.761719 L 602.753906 390.761719 Z M 395.585938 398.75 C 406.421875 400.097656 417.261719 398.832031 425.804688 395.113281 C 426.988281 394.636719 427.148438 395.035156 427.070312 399.542969 C 427.070312 402.3125 426.753906 406.34375 426.355469 408.558594 C 425.804688 412.199219 425.722656 412.277344 425.566406 409.746094 C 425.40625 408.242188 425.25 406.265625 425.171875 405.394531 C 425.089844 404.527344 425.011719 402.707031 424.933594 401.363281 L 424.773438 398.832031 L 419.871094 400.886719 C 415.914062 402.546875 413.226562 403.023438 406.503906 403.261719 C 396.851562 403.65625 390.445312 402.546875 386.488281 399.859375 L 383.640625 397.960938 L 383.640625 405.871094 C 383.640625 414.808594 382.457031 415.835938 381.742188 407.53125 C 381.425781 404.605469 381.03125 400.414062 380.875 398.117188 L 380.476562 394.003906 L 384.75 395.984375 C 387.121094 397.011719 391.867188 398.277344 395.585938 398.75 Z M 182.644531 398.199219 C 183.121094 398.75 183.832031 403.894531 184.304688 409.667969 C 185.253906 421.929688 187.234375 432.765625 191.109375 447.636719 C 192.613281 453.410156 193.796875 458.234375 193.640625 458.394531 C 193.480469 458.472656 192.453125 458.789062 191.265625 459.105469 C 189.210938 459.582031 189.050781 459.421875 187.550781 454.28125 C 182.882812 438.617188 179.875 421.53125 179.007812 405.949219 C 178.53125 396.457031 178.53125 396.378906 180.191406 396.851562 C 181.140625 397.089844 182.25 397.722656 182.644531 398.199219 Z M 571.746094 407.214844 C 572.933594 408.007812 575.304688 409.273438 576.964844 409.90625 L 580.050781 411.089844 L 577.519531 411.566406 C 573.40625 412.4375 570.558594 414.96875 568.898438 419.316406 L 567.394531 423.351562 L 566.050781 419.792969 C 564.390625 415.441406 562.886719 414.019531 557.980469 412.121094 C 554.738281 410.933594 554.34375 410.539062 555.6875 410.0625 C 563.203125 407.375 564.230469 406.503906 566.445312 400.648438 L 567.316406 398.277344 L 568.421875 401.996094 C 569.136719 404.367188 570.320312 406.265625 571.746094 407.214844 Z M 162.472656 409.113281 C 162.710938 411.40625 163.265625 417.339844 163.738281 422.164062 C 164.847656 433.792969 166.585938 443.761719 169.277344 454.203125 C 171.414062 462.585938 171.492188 463.535156 169.671875 463.535156 C 168.328125 463.535156 164.769531 450.722656 162.15625 436.324219 C 160.496094 427.070312 158.675781 406.898438 159.46875 405.710938 C 159.707031 405.316406 160.339844 405 160.972656 405 C 161.683594 405 162.15625 406.34375 162.472656 409.113281 Z M 650.53125 406.1875 C 651.085938 407.769531 649.820312 423.429688 648.316406 433.554688 C 647.367188 439.726562 644.757812 453.09375 641.75 466.859375 C 641.511719 468.042969 640.484375 469.546875 639.457031 470.257812 C 637.558594 471.445312 637.558594 471.445312 637.875 469.707031 C 638.585938 466.542969 642.226562 449.140625 643.410156 442.96875 C 644.125 439.726562 645.390625 430.234375 646.339844 422.007812 C 647.207031 413.703125 648.15625 406.503906 648.316406 405.949219 C 648.710938 404.605469 649.976562 404.761719 650.53125 406.1875 Z M 251.9375 426.910156 C 253.757812 428.574219 255.894531 430.867188 256.683594 432.054688 L 258.265625 434.269531 L 262.222656 429.125 L 266.175781 423.984375 L 273.136719 423.984375 C 279.308594 423.984375 280.414062 424.222656 283.261719 426.121094 C 287.453125 428.890625 286.347656 429.523438 276.777344 429.523438 L 269.101562 429.523438 L 264.199219 436.71875 C 261.507812 440.597656 259.058594 443.761719 258.660156 443.601562 C 258.34375 443.445312 255.496094 440.28125 252.332031 436.402344 L 246.558594 429.523438 L 222.988281 429.523438 C 209.933594 429.523438 199.335938 429.757812 199.335938 429.996094 C 199.335938 430.234375 202.65625 434.585938 206.691406 439.648438 C 210.726562 444.710938 214.996094 450.167969 216.183594 451.75 L 218.320312 454.597656 L 218.320312 509.335938 L 192.847656 509.570312 C 168.167969 509.808594 167.140625 509.886719 163.34375 511.628906 C 158.203125 514 152.429688 519.695312 150.132812 524.757812 L 148.316406 528.792969 L 148.078125 584.085938 C 147.839844 649.105469 147.367188 644.992188 155.75 653.457031 C 163.027344 660.734375 167.457031 662.394531 178.453125 661.921875 C 185.175781 661.605469 187.234375 661.210938 190.871094 659.390625 C 193.324219 658.203125 196.09375 656.464844 197.042969 655.355469 L 198.859375 653.535156 L 201.15625 655.433594 C 203.84375 657.730469 205.03125 657.730469 226.230469 656.148438 C 244.34375 654.722656 245.292969 654.566406 247.507812 652.507812 C 249.011719 651.085938 249.328125 651.003906 250.910156 652.191406 C 253.125 653.695312 258.820312 653.695312 261.824219 652.191406 C 263.011719 651.558594 264.832031 650.054688 265.703125 648.949219 L 267.363281 646.8125 L 269.023438 648.949219 C 273.375 654.484375 305.964844 674.023438 348.835938 696.882812 C 362.125 703.925781 373.359375 710.015625 373.753906 710.332031 C 374.230469 710.648438 381.269531 714.523438 389.496094 718.953125 L 404.367188 726.863281 L 409.269531 724.410156 C 411.882812 723.066406 422.324219 717.449219 432.289062 711.914062 C 442.335938 706.375 457.445312 698.148438 465.90625 693.71875 C 496.679688 677.503906 535.4375 654.800781 539.628906 650.609375 C 541.449219 648.789062 541.765625 648.710938 542.636719 649.898438 C 544.773438 652.351562 548.332031 653.535156 552.445312 653.140625 C 555.609375 652.824219 556.796875 652.269531 558.695312 650.214844 C 560.828125 647.839844 560.988281 647.761719 562.015625 649.1875 C 562.648438 649.976562 563.203125 650.847656 563.203125 651.085938 C 563.28125 653.140625 579.261719 656.066406 596.03125 657.097656 C 603.703125 657.570312 604.019531 657.492188 606.390625 655.515625 L 608.84375 653.457031 L 611.535156 656.226562 C 615.332031 660.179688 623.160156 662.476562 630.597656 661.84375 C 641.277344 660.972656 650.136719 654.960938 654.722656 645.625 L 656.9375 641.117188 L 656.9375 530.375 L 654.328125 525.074219 C 650.847656 517.957031 645.390625 513.132812 638.585938 510.996094 C 634 509.570312 631.230469 509.414062 612.957031 509.414062 L 592.46875 509.414062 L 590.019531 504.035156 C 588.671875 501.109375 583.769531 489.796875 579.023438 478.878906 C 567.632812 452.304688 559.644531 435.136719 557.347656 432.289062 L 555.449219 429.917969 L 536.546875 429.523438 L 517.71875 429.125 L 521.59375 426.515625 L 525.550781 423.984375 L 540.421875 423.984375 C 556.875 423.984375 558.140625 424.300781 561.9375 428.808594 C 564.863281 432.289062 566.921875 436.484375 579.339844 464.722656 C 585.351562 478.167969 591.601562 492.328125 593.417969 496.125 L 596.664062 503.007812 L 618.496094 503.242188 L 640.328125 503.480469 L 645.785156 506.171875 C 655.355469 510.835938 661.210938 518.273438 663.34375 528.476562 C 664.453125 533.539062 664.53125 540.976562 664.058594 585.351562 C 663.742188 613.433594 663.265625 638.269531 662.871094 640.484375 C 661.128906 650.53125 653.695312 660.179688 644.125 664.691406 C 639.457031 666.824219 637.714844 667.222656 630.675781 667.457031 C 621.894531 667.855469 616.753906 666.667969 611.296875 663.109375 C 609.003906 661.527344 608.132812 661.367188 606.789062 662 C 601.804688 664.691406 565.734375 660.8125 561.066406 657.175781 C 560.355469 656.621094 559.011719 656.78125 556.875 657.648438 C 552.761719 659.230469 547.9375 659.230469 544.535156 657.648438 C 542.082031 656.464844 541.609375 656.464844 540.421875 657.492188 C 539.078125 658.679688 513.605469 674.101562 507.039062 677.742188 C 505.0625 678.847656 501.1875 680.984375 498.339844 682.644531 C 492.40625 686.046875 460.765625 702.894531 445.738281 710.726562 C 417.578125 725.359375 406.34375 730.898438 404.761719 730.898438 C 403.023438 730.898438 383.167969 721.246094 364.261719 711.359375 C 359.515625 708.828125 349.867188 703.765625 342.90625 700.128906 C 331.433594 694.117188 317.433594 686.363281 300.191406 676.476562 C 296.710938 674.5 287.769531 668.960938 280.257812 664.292969 L 266.730469 655.75 L 263.40625 657.414062 C 260.71875 658.835938 259.292969 659.074219 255.023438 658.679688 C 251.464844 658.441406 249.167969 658.679688 247.667969 659.390625 C 245.054688 660.65625 228.523438 662 209.855469 662.476562 C 198.859375 662.792969 196.566406 663.027344 193.878906 664.453125 C 183.277344 669.832031 169.277344 669.59375 158.835938 663.898438 C 156.699219 662.710938 152.824219 659.546875 150.292969 656.859375 C 144.992188 651.085938 142.621094 645.707031 141.511719 636.765625 C 141.039062 633.445312 140.878906 607.738281 140.957031 579.023438 C 141.195312 521.277344 140.878906 524.601562 146.890625 515.898438 C 150.449219 510.679688 156.144531 506.488281 162.238281 504.589844 C 166.507812 503.242188 169.75 503.085938 189.921875 503.085938 L 212.78125 503.085938 L 212.78125 486.078125 C 212.78125 476.746094 212.703125 469.074219 212.546875 469.074219 C 212.386719 469.074219 206.21875 470.257812 198.859375 471.761719 C 184.304688 474.6875 174.023438 476.03125 174.023438 474.925781 C 174.023438 473.503906 175.289062 472.472656 178.691406 471.128906 C 182.40625 469.707031 209.539062 462.746094 211.515625 462.746094 C 212.386719 462.746094 212.78125 461.953125 212.78125 460.054688 C 212.78125 457.839844 211.121094 455.230469 203.6875 445.421875 C 193.796875 432.449219 189.84375 426.675781 189.84375 425.011719 C 189.84375 424.222656 195.617188 423.984375 219.347656 423.984375 L 248.773438 423.984375 Z M 615.25 427.859375 C 625.296875 433.082031 628.699219 443.445312 623.714844 453.648438 C 619.761719 461.796875 612.324219 465.511719 603.703125 463.535156 C 600.222656 462.746094 598.5625 461.796875 595.238281 458.550781 C 589.304688 452.777344 587.960938 447.003906 590.570312 438.300781 C 591.996094 433.476562 596.265625 428.730469 600.378906 427.386719 C 604.96875 425.960938 611.929688 426.199219 615.25 427.859375 Z M 119.046875 433.871094 C 120.15625 434.902344 121.023438 436.71875 121.023438 437.828125 C 121.023438 440.597656 117.070312 444.550781 114.300781 444.550781 C 111.296875 444.550781 108.367188 441.308594 108.367188 437.90625 C 108.367188 432.527344 115.171875 429.917969 119.046875 433.871094 Z M 250.199219 451.671875 C 255.339844 458 259.769531 463.21875 260.085938 463.378906 C 260.402344 463.457031 264.753906 458.234375 269.734375 451.671875 L 278.832031 439.804688 L 295.917969 439.804688 L 293.703125 442.730469 L 291.488281 445.660156 L 291.648438 477.929688 L 291.882812 510.203125 L 283.023438 510.203125 C 276.144531 510.203125 274.402344 509.96875 275.113281 509.253906 C 275.828125 508.542969 276.0625 503.324219 276.0625 490.585938 L 276.0625 472.871094 L 271 479.117188 C 268.234375 482.519531 264.671875 486.710938 263.171875 488.453125 L 260.324219 491.617188 L 258.265625 489.242188 C 257.160156 487.898438 253.835938 483.863281 250.910156 480.226562 L 245.609375 473.660156 L 245.371094 490.824219 C 245.214844 502.847656 245.453125 508.386719 246.085938 509.097656 C 246.875 510.046875 245.453125 510.203125 237.621094 510.203125 C 230.34375 510.203125 228.523438 509.96875 229.234375 509.253906 C 229.949219 508.542969 230.183594 500.316406 230.183594 477.21875 L 230.183594 446.132812 L 227.335938 442.96875 L 224.410156 439.726562 L 232.636719 439.964844 L 240.863281 440.199219 Z M 360.941406 468.835938 C 369.085938 484.890625 377.234375 500.710938 379.210938 504.035156 L 382.691406 510.203125 L 371.222656 510.203125 C 361.175781 510.203125 359.832031 510.046875 360.703125 509.019531 C 361.492188 508.070312 361.097656 506.644531 358.644531 501.503906 L 355.71875 495.175781 L 322.179688 495.175781 L 319.332031 501.503906 C 317.75 504.984375 316.644531 508.386719 316.878906 509.019531 C 317.277344 510.046875 315.929688 510.203125 307.230469 510.203125 L 297.183594 510.203125 L 298.765625 508.386719 C 300.585938 506.566406 323.523438 459.105469 323.523438 457.367188 C 323.523438 456.652344 322.734375 456.496094 320.757812 456.890625 C 318.144531 457.367188 317.988281 457.285156 317.988281 455.152344 C 317.910156 452.382812 316.246094 447.558594 314.507812 445.183594 C 313.796875 444.15625 312.6875 442.574219 311.976562 441.546875 L 310.710938 439.804688 L 346.226562 439.804688 Z M 405.632812 447.082031 C 408.636719 451.117188 414.570312 459.265625 418.761719 465.195312 C 422.957031 471.128906 427.070312 476.824219 427.9375 477.851562 L 429.519531 479.75 L 429.363281 462.191406 L 429.125 444.628906 L 426.832031 442.257812 L 424.457031 439.804688 L 451.195312 439.804688 L 448.820312 442.257812 L 446.527344 444.628906 L 446.289062 475.953125 C 446.132812 504.429688 446.210938 507.355469 447.398438 508.703125 C 448.742188 510.125 448.503906 510.203125 440.515625 510.203125 L 432.210938 510.203125 L 426.277344 502.058594 C 422.957031 497.628906 416.945312 489.480469 412.988281 483.863281 C 408.953125 478.328125 405.394531 473.816406 404.921875 473.816406 C 404.207031 473.816406 404.605469 502.847656 405.394531 507.988281 L 405.789062 510.203125 L 395.746094 510.203125 C 385.9375 510.203125 385.777344 510.203125 387.121094 508.703125 C 388.386719 507.277344 388.46875 504.746094 388.230469 476.980469 L 387.992188 446.84375 L 384.273438 443.285156 L 380.558594 439.804688 L 400.09375 439.804688 Z M 504.746094 447.320312 L 497.230469 454.835938 L 473.816406 454.835938 L 473.816406 496.757812 L 493.59375 496.757812 L 493.59375 484.101562 L 483.308594 484.101562 L 483.308594 466.699219 L 509.414062 466.699219 L 509.414062 501.34375 L 504.507812 505.773438 L 499.683594 510.203125 L 466.855469 510.203125 L 462.425781 505.300781 L 457.996094 500.476562 L 457.996094 475.480469 C 457.996094 461.714844 458.234375 449.773438 458.472656 448.902344 C 458.710938 448.03125 460.925781 445.660156 463.375 443.601562 L 467.886719 439.882812 L 490.113281 439.804688 L 512.261719 439.804688 Z M 551.574219 445.105469 C 553 448.109375 559.5625 462.902344 566.050781 478.089844 C 573.011719 494.304688 578.707031 506.566406 579.972656 507.910156 L 582.027344 510.203125 L 572.0625 510.203125 C 562.253906 510.203125 562.175781 510.203125 563.597656 508.621094 C 564.941406 507.121094 564.941406 506.882812 562.570312 501.34375 L 560.195312 495.570312 L 547.539062 495.332031 L 534.882812 495.175781 L 532.511719 501.265625 C 530.769531 505.695312 530.296875 507.832031 530.851562 508.78125 C 531.5625 510.125 530.929688 510.203125 521.992188 510.203125 L 512.339844 510.203125 L 514 508.386719 C 514.949219 507.4375 517.640625 502.136719 520.011719 496.757812 C 522.308594 491.300781 526.261719 482.441406 528.792969 476.980469 C 531.246094 471.523438 534.332031 464.644531 535.597656 461.714844 L 537.890625 456.257812 L 534.882812 456.8125 L 531.878906 457.285156 L 530.058594 451.433594 C 529.109375 448.191406 527.371094 444.234375 526.339844 442.652344 L 524.363281 439.804688 L 548.964844 439.804688 Z M 603.941406 479.59375 C 602.515625 482.757812 600.460938 487.1875 599.429688 489.402344 L 597.453125 493.515625 L 595.714844 491.773438 C 594.84375 490.746094 594.050781 489.71875 594.050781 489.402344 C 594.050781 489.164062 595.792969 485.207031 597.929688 480.621094 L 601.804688 472.316406 L 604.175781 473.105469 L 606.550781 473.898438 Z M 622.527344 478.484375 C 622.527344 479.277344 619.128906 489.164062 617.386719 493.355469 C 616.121094 496.519531 615.882812 496.679688 613.589844 496.203125 C 612.167969 495.964844 610.980469 495.648438 610.820312 495.570312 C 610.742188 495.492188 612.167969 491.933594 614.066406 487.582031 C 615.964844 483.308594 617.703125 479.195312 618.019531 478.484375 C 618.335938 477.535156 619.046875 477.296875 620.472656 477.535156 C 621.578125 477.773438 622.527344 478.246094 622.527344 478.484375 Z M 198.941406 532.351562 C 202.339844 536.308594 205.664062 539.945312 206.136719 540.34375 C 206.769531 540.894531 209.066406 538.839844 214.046875 533.144531 L 221.089844 525.234375 L 250.910156 525.234375 L 248.457031 528.082031 L 245.925781 530.851562 L 246.164062 581.078125 L 246.402344 631.230469 L 243.238281 631.625 C 236.117188 632.496094 219.664062 633.683594 219.347656 633.285156 C 219.109375 633.050781 219.664062 631.863281 220.613281 630.597656 C 222.195312 628.304688 222.273438 627.433594 222.273438 599.273438 C 222.273438 583.375 222.039062 570.320312 221.722656 570.320312 C 221.324219 570.320312 217.925781 573.882812 213.96875 578.230469 L 206.851562 586.140625 L 199.492188 578.230469 C 195.378906 573.882812 191.820312 570.320312 191.503906 570.320312 C 190.949219 570.320312 190.871094 634.15625 191.425781 635.976562 C 191.742188 636.847656 189.132812 637.398438 177.265625 638.902344 C 169.199219 639.851562 162.472656 640.484375 162.238281 640.328125 C 162.078125 640.089844 163.027344 638.746094 164.371094 637.320312 L 166.902344 634.710938 L 166.902344 530.613281 L 164.53125 528.238281 C 163.265625 526.972656 162.15625 525.789062 162.15625 525.707031 C 162.15625 525.550781 169.039062 525.390625 177.425781 525.3125 L 192.613281 525.15625 Z M 326.609375 528.160156 C 325.421875 530.453125 325.105469 532.828125 325.105469 539.234375 L 325.105469 547.382812 L 302.40625 547.539062 L 279.625 547.777344 L 279.386719 557.03125 L 279.148438 566.367188 L 291.882812 566.367188 C 298.925781 566.367188 305.253906 566.050781 305.964844 565.65625 C 307.230469 565.023438 307.308594 565.972656 307.308594 577.914062 C 307.308594 585.035156 307.152344 590.886719 306.992188 590.886719 C 306.753906 590.886719 305.804688 590.097656 304.699219 589.070312 C 302.957031 587.40625 302.167969 587.328125 291.25 587.328125 L 279.625 587.328125 L 279.386719 596.582031 L 279.148438 605.917969 L 326.609375 605.917969 L 325.421875 608.054688 C 324.710938 609.636719 324.316406 612.957031 324.316406 619.128906 L 324.316406 628.066406 L 296.867188 628.066406 C 281.679688 628.066406 265.78125 628.304688 261.429688 628.621094 L 253.519531 629.09375 L 255.734375 626.5625 L 257.871094 623.953125 L 257.871094 530.851562 L 255.417969 528.003906 L 252.964844 525.234375 L 328.113281 525.234375 Z M 359.199219 528.003906 L 356.746094 530.851562 L 356.746094 627.039062 L 350.65625 627.589844 C 347.335938 627.828125 341.242188 628.066406 337.050781 628.066406 L 329.457031 628.066406 L 332.621094 625.375 L 335.785156 622.6875 L 335.785156 576.648438 L 335.707031 530.613281 L 333.175781 528.320312 C 331.75 527.054688 330.644531 525.867188 330.644531 525.628906 C 330.644531 525.390625 337.605469 525.234375 346.148438 525.234375 L 361.652344 525.234375 Z M 423.191406 525.945312 C 423.191406 526.421875 422.875 526.972656 422.402344 527.210938 C 421.925781 527.527344 421.609375 532.511719 421.609375 539.628906 L 421.609375 551.652344 L 419.394531 549.519531 L 417.179688 547.382812 L 388.308594 547.382812 L 388.546875 554.265625 L 388.785156 561.066406 L 404.761719 568.265625 L 420.820312 575.464844 L 420.820312 618.96875 L 415.519531 623.558594 L 410.21875 628.066406 L 387.042969 628.066406 C 374.308594 628.066406 363.867188 627.828125 363.867188 627.589844 C 363.867188 627.355469 364.738281 626.40625 365.84375 625.535156 C 367.742188 624.03125 367.820312 623.636719 367.820312 614.933594 L 367.820312 605.917969 L 384.273438 605.757812 L 400.648438 605.523438 L 400.648438 589.859375 L 387.597656 584.164062 C 380.398438 581.078125 373.042969 577.757812 371.222656 576.808594 L 367.820312 575.066406 L 367.820312 533.222656 L 370.433594 531.246094 C 371.855469 530.136719 375.019531 528.320312 377.394531 527.289062 C 381.585938 525.390625 382.058594 525.3125 402.46875 525.3125 C 414.886719 525.234375 423.191406 525.550781 423.191406 525.945312 Z M 492.882812 527.527344 C 491.378906 529.585938 491.21875 531.007812 491.21875 540.738281 L 491.21875 551.652344 L 489.003906 549.519531 C 486.871094 547.460938 486.394531 547.382812 479.117188 547.382812 L 471.367188 547.382812 L 471.601562 585.429688 L 471.839844 623.476562 L 474.054688 625.296875 C 475.953125 626.800781 476.113281 627.117188 475.003906 627.589844 C 473.421875 628.144531 446.605469 628.222656 445.972656 627.671875 C 445.738281 627.433594 446.765625 626.007812 448.1875 624.585938 L 450.878906 621.894531 L 450.878906 547.382812 L 442.257812 547.382812 C 434.898438 547.382812 433.398438 547.621094 431.65625 548.964844 C 430.550781 549.835938 429.519531 550.546875 429.363281 550.546875 C 429.125 550.546875 429.125 545.957031 429.363281 540.421875 C 429.679688 532.035156 429.519531 529.820312 428.414062 527.765625 L 427.070312 525.234375 L 494.464844 525.234375 Z M 561.699219 527.289062 C 560.277344 529.109375 560.039062 530.535156 560.039062 538.363281 L 560.039062 547.382812 L 522.859375 547.382812 L 522.859375 566.367188 L 533.222656 566.367188 C 538.917969 566.367188 544.140625 566.050781 544.851562 565.65625 C 546.117188 565.023438 546.195312 565.972656 546.195312 577.914062 C 546.195312 585.035156 546.039062 590.886719 545.878906 590.886719 C 545.722656 590.886719 544.535156 590.019531 543.269531 588.910156 C 540.976562 586.933594 540.5 586.855469 532.035156 587.089844 L 523.257812 587.328125 L 523.019531 596.582031 L 522.78125 605.917969 L 543.03125 605.917969 C 554.105469 605.917969 563.203125 606.15625 563.203125 606.390625 C 563.203125 606.628906 562.648438 607.339844 562.015625 607.972656 C 561.066406 608.921875 560.828125 611.296875 560.828125 618.414062 C 560.828125 623.476562 560.511719 628.144531 560.195312 628.621094 C 559.722656 629.410156 557.664062 629.410156 551.335938 628.855469 C 546.75 628.460938 532.589844 628.144531 519.933594 628.066406 C 507.199219 628.066406 496.757812 627.828125 496.757812 627.511719 C 496.757812 627.195312 497.707031 626.167969 498.8125 625.296875 L 500.871094 623.636719 L 500.949219 577.28125 L 501.109375 530.851562 L 498.972656 528.636719 C 497.707031 527.371094 496.757812 526.105469 496.757812 525.789062 C 496.757812 525.472656 511.707031 525.234375 530.058594 525.234375 L 563.28125 525.234375 Z M 632.101562 529.503906 L 637.320312 533.933594 L 637.796875 543.980469 C 638.113281 549.597656 638.347656 559.878906 638.347656 566.921875 L 638.347656 579.734375 L 633.601562 585.273438 C 630.992188 588.277344 628.539062 590.96875 628.144531 591.285156 C 627.671875 591.519531 627.828125 593.023438 628.460938 595.082031 C 629.015625 596.898438 632.101562 606.550781 635.183594 616.597656 C 638.269531 626.5625 641.75 636.132812 642.777344 637.796875 L 644.835938 640.878906 L 642.542969 640.40625 C 641.355469 640.167969 635.34375 639.21875 629.332031 638.347656 C 623.242188 637.480469 618.019531 636.53125 617.703125 636.214844 C 617.386719 635.816406 615.648438 630.4375 613.828125 624.109375 C 612.007812 617.78125 609.636719 609.714844 608.527344 606.074219 L 606.628906 599.589844 L 594.84375 599.589844 L 594.84375 615.09375 C 594.84375 624.664062 595.160156 631.152344 595.714844 632.179688 C 596.1875 633.050781 596.425781 633.839844 596.265625 633.917969 C 595.949219 634.234375 568.421875 631.070312 567.949219 630.675781 C 567.710938 630.519531 568.421875 629.648438 569.453125 628.9375 L 571.351562 627.433594 L 571.507812 531.402344 L 568.105469 528.554688 L 564.707031 525.628906 L 595.792969 525.3125 L 626.957031 525.074219 Z M 405.394531 644.675781 C 406.105469 648 409.507812 651.71875 413.066406 653.378906 L 416.152344 654.722656 L 412.671875 656.066406 C 408.480469 657.648438 406.820312 659.390625 405.394531 663.34375 L 404.445312 666.273438 L 402.46875 662.394531 C 400.886719 659.230469 399.777344 658.125 396.378906 656.464844 L 392.265625 654.40625 L 395.347656 653.140625 C 398.988281 651.636719 401.441406 648.789062 402.707031 644.597656 C 403.734375 641.195312 404.605469 641.195312 405.394531 644.675781 Z M 344.644531 659.945312 C 354.453125 665.875 380.398438 680.035156 397.644531 688.972656 L 404.207031 692.296875 L 418.605469 685.019531 C 436.246094 676.082031 457.445312 664.609375 469.070312 657.730469 C 477.378906 652.746094 477.851562 652.585938 483.074219 652.585938 L 488.453125 652.585938 L 483.707031 655.671875 C 475.558594 660.894531 438.933594 680.746094 421.609375 689.371094 L 404.921875 697.597656 L 400.410156 695.617188 C 390.285156 691.109375 339.742188 664.058594 327.402344 656.542969 L 320.757812 652.429688 L 327.242188 652.902344 C 333.570312 653.378906 333.808594 653.457031 344.644531 659.945312 Z M 515.1875 653.378906 L 517.71875 653.378906 L 514.949219 655.039062 C 498.023438 665.402344 468.28125 682.011719 444.945312 694.117188 C 438.460938 697.515625 426.832031 703.609375 419.078125 707.640625 C 411.40625 711.753906 404.839844 715.078125 404.523438 715.078125 C 403.8125 715.078125 374.546875 699.730469 350.5 686.757812 C 323.761719 672.363281 302.722656 660.023438 296.628906 655.039062 L 294.652344 653.378906 L 298.132812 653.378906 C 301.140625 653.378906 303.355469 654.40625 313.953125 660.65625 C 334.519531 672.757812 344.882812 678.453125 378.5 695.699219 C 386.804688 699.96875 395.746094 704.636719 398.433594 706.058594 C 401.125 707.5625 403.8125 708.75 404.367188 708.75 C 405 708.75 409.585938 706.613281 414.570312 703.925781 C 419.476562 701.3125 429.679688 696.09375 437.035156 692.375 C 453.09375 684.308594 468.359375 676.160156 484.496094 666.984375 C 503.164062 656.382812 510.519531 652.585938 511.628906 652.984375 C 512.261719 653.21875 513.84375 653.378906 515.1875 653.378906 Z M 388.703125 663.265625 C 395.824219 666.984375 402.152344 670.542969 402.625 671.175781 C 403.890625 672.679688 405.316406 672.679688 406.503906 671.253906 C 407.054688 670.621094 409.667969 668.960938 412.355469 667.539062 C 415.046875 666.191406 420.742188 663.109375 424.933594 660.734375 C 431.417969 657.097656 433.082031 656.464844 436.007812 656.699219 L 439.410156 656.9375 L 435.847656 659.230469 C 430.390625 662.792969 405.472656 676.554688 404.523438 676.554688 C 403.574219 676.554688 385.699219 666.667969 375.335938 660.339844 L 369.007812 656.542969 L 372.332031 656.542969 C 375.019531 656.542969 378.421875 657.964844 388.703125 663.265625 Z M 278.359375 675.921875 C 286.347656 680.984375 294.574219 685.96875 296.710938 687.15625 C 300.03125 689.054688 300.347656 689.527344 299.636719 690.953125 C 299.160156 691.820312 298.6875 692.613281 298.609375 692.769531 C 297.976562 693.484375 278.753906 680.828125 270.210938 674.101562 C 267.125 671.570312 263.644531 668.960938 262.617188 668.25 C 260.796875 666.984375 260.71875 666.90625 262.300781 666.90625 C 263.171875 666.824219 270.449219 670.9375 278.359375 675.921875 Z M 539.789062 671.414062 C 540.578125 672.757812 510.917969 693.484375 509.492188 692.613281 C 507.515625 691.347656 509.019531 689.449219 515.265625 685.414062 C 518.90625 683.042969 522.148438 681.0625 522.386719 681.0625 C 522.625 681.0625 526.261719 678.769531 530.535156 675.921875 C 538.601562 670.621094 539.15625 670.386719 539.789062 671.414062 Z M 539.789062 671.414062 " fill-opacity="1" fill-rule="nonzero"/><path fill="#ffffff" d="M 258.265625 194.511719 C 250.355469 196.566406 243.078125 202.816406 240.863281 209.539062 C 238.015625 218.164062 240.46875 228.683594 246.796875 234.851562 C 254.230469 242.128906 265.070312 244.425781 273.136719 240.546875 C 278.4375 238.015625 284.449219 231.609375 286.347656 226.46875 C 290.855469 214.445312 285.714844 202.34375 273.613281 196.09375 C 269.894531 194.273438 262.300781 193.402344 258.265625 194.511719 Z M 265.304688 202.976562 C 266.019531 203.210938 266.570312 204.160156 266.570312 205.109375 C 266.570312 206.613281 266.652344 206.613281 267.996094 205.425781 C 269.261719 204.242188 269.65625 204.242188 270.921875 205.191406 C 272.1875 206.058594 272.265625 206.535156 271.476562 207.484375 C 270.683594 208.355469 270.765625 208.828125 271.714844 209.621094 C 272.664062 210.410156 272.980469 210.332031 273.53125 208.90625 C 274.085938 207.246094 274.164062 207.246094 275.984375 209.621094 C 277.644531 211.992188 277.726562 212.230469 276.460938 213.574219 C 275.195312 214.917969 275.273438 215.078125 276.933594 215.316406 C 279.703125 215.710938 279.78125 217.53125 277.011719 217.53125 C 275.113281 217.53125 274.5625 217.925781 274.164062 219.585938 C 273.847656 220.851562 273.136719 221.484375 272.265625 221.328125 C 271.554688 221.246094 269.816406 222.277344 268.390625 223.699219 C 265.304688 226.863281 262.773438 226.941406 259.925781 223.9375 C 257.554688 221.484375 255.496094 221.484375 255.496094 223.859375 C 255.496094 225.675781 252.492188 226.785156 251.226562 225.441406 C 250.59375 224.808594 250.75 224.253906 251.859375 223.382812 C 252.730469 222.75 253.914062 222.277344 254.546875 222.277344 C 255.261719 222.277344 255.496094 221.800781 255.179688 221.011719 C 254.945312 220.296875 254.707031 219.429688 254.707031 219.03125 C 254.707031 218.636719 253.441406 218.320312 251.859375 218.320312 C 249.40625 218.320312 249.089844 218.082031 249.328125 216.582031 C 249.484375 215.472656 250.277344 214.683594 251.542969 214.367188 C 253.363281 213.890625 253.441406 213.8125 252.015625 213.019531 C 250.988281 212.46875 250.75 211.753906 251.148438 210.488281 C 251.621094 208.988281 252.015625 208.828125 254.152344 209.222656 C 256.210938 209.699219 256.527344 209.621094 255.734375 208.75 C 254.152344 207.167969 254.46875 205.980469 256.683594 205.03125 C 258.34375 204.242188 258.820312 204.320312 259.136719 205.269531 C 259.847656 207.089844 262.0625 206.773438 261.429688 204.953125 C 261.113281 203.84375 261.429688 203.292969 262.378906 203.054688 C 263.171875 202.816406 263.882812 202.660156 263.960938 202.578125 C 264.039062 202.578125 264.59375 202.738281 265.304688 202.976562 Z M 265.304688 202.976562 " fill-opacity="1" fill-rule="nonzero"/><path fill="#ffffff" d="M 260.957031 210.648438 C 257.394531 213.335938 257 217.925781 259.925781 221.40625 C 263.011719 225.042969 266.96875 224.410156 269.339844 219.902344 C 271.082031 216.5 270.84375 214.523438 268.234375 211.914062 C 265.78125 209.539062 263.089844 208.988281 260.957031 210.648438 Z M 260.957031 210.648438 " fill-opacity="1" fill-rule="nonzero"/><path fill="#ffffff" d="M 527.605469 212.703125 C 527.605469 221.644531 528.398438 225.441406 530.136719 225.441406 C 530.691406 225.441406 531.5625 226.230469 531.957031 227.179688 C 532.984375 229.554688 534.964844 229.472656 535.515625 227.023438 C 535.992188 225.042969 536.148438 225.042969 544.851562 224.808594 L 553.710938 224.570312 L 553.710938 204.082031 L 527.605469 204.082031 Z M 537.890625 214.445312 C 537.890625 216.738281 537.730469 216.898438 535.515625 216.582031 C 533.617188 216.265625 533.144531 216.5 533.144531 217.6875 C 533.144531 218.953125 533.933594 219.113281 540.660156 219.113281 C 546.671875 219.113281 548.171875 218.875 548.171875 218.003906 C 548.171875 217.292969 547.222656 216.738281 546.039062 216.582031 C 544.296875 216.421875 543.742188 215.867188 543.585938 214.128906 C 543.347656 212.070312 543.425781 211.992188 546.988281 211.992188 L 550.625 211.992188 L 550.386719 216.5 L 550.152344 221.089844 L 540.894531 221.328125 L 531.5625 221.5625 L 531.5625 211.992188 L 534.726562 211.992188 C 537.730469 211.992188 537.890625 212.070312 537.890625 214.445312 Z M 537.890625 214.445312 " fill-opacity="1" fill-rule="nonzero"/><path fill="#ffffff" d="M 395.03125 209.777344 C 389.96875 213.257812 387.597656 217.847656 387.597656 224.015625 C 387.597656 235.011719 394.636719 242.050781 405.789062 242.050781 C 413.9375 242.050781 419.949219 238.253906 423.667969 230.738281 L 424.933594 228.207031 L 422.875 230.582031 C 421.769531 231.847656 420.898438 233.191406 420.820312 233.507812 C 420.820312 234.140625 412.910156 238.886719 411.882812 238.886719 C 411.484375 238.886719 412.75 237.699219 414.648438 236.277344 C 419.949219 232.242188 421.609375 229.15625 421.609375 223.699219 C 421.609375 218.398438 420.503906 215.867188 416.707031 212.308594 C 412.671875 208.433594 409.585938 207.246094 403.972656 207.246094 C 399.542969 207.246094 398.355469 207.5625 395.03125 209.777344 Z M 403.023438 213.179688 C 405 215.078125 405.632812 218.953125 404.523438 221.878906 C 403.890625 223.382812 400.175781 225.441406 397.878906 225.441406 C 395.269531 225.441406 391.550781 221.246094 391.550781 218.320312 C 391.550781 216.582031 392.265625 215.078125 393.847656 213.496094 C 396.851562 210.570312 400.332031 210.410156 403.023438 213.179688 Z M 403.023438 213.179688 " fill-opacity="1" fill-rule="nonzero"/><path fill="#ffffff" d="M 312.847656 332.304688 C 311.265625 333.335938 309.445312 333.808594 307.46875 333.652344 C 305.253906 333.414062 304.621094 333.652344 304.9375 334.441406 C 305.171875 335.074219 305.332031 339.503906 305.332031 344.410156 L 305.332031 353.269531 L 308.019531 354.21875 C 309.523438 354.769531 311.816406 356.511719 313.164062 358.015625 L 315.613281 360.78125 L 315.613281 345.675781 C 315.613281 337.449219 315.535156 330.644531 315.457031 330.722656 C 315.296875 330.722656 314.191406 331.4375 312.847656 332.304688 Z M 312.847656 332.304688 " fill-opacity="1" fill-rule="nonzero"/><path fill="#ffffff" d="M 322.574219 349.472656 L 322.339844 365.132812 L 326.6875 362.445312 C 329.773438 360.546875 331.75 359.914062 333.570312 360.070312 C 336.023438 360.386719 336.023438 360.308594 334.996094 358.332031 C 333.015625 354.453125 332.148438 344.882812 333.414062 340.929688 C 333.808594 339.664062 333.570312 339.347656 331.910156 339.347656 C 330.882812 339.347656 328.351562 338.082031 326.371094 336.578125 L 322.8125 333.886719 Z M 322.574219 349.472656 " fill-opacity="1" fill-rule="nonzero"/><path fill="#ffffff" d="M 597.613281 340.214844 C 597.296875 340.691406 597.058594 342.273438 596.980469 343.695312 C 596.898438 345.199219 596.742188 346.226562 596.582031 346.070312 C 596.347656 345.910156 595.554688 346.070312 594.765625 346.542969 C 592.628906 347.652344 592.945312 350.183594 595.316406 351.6875 C 596.582031 352.554688 597.214844 353.585938 596.980469 354.453125 C 596.742188 355.167969 596.898438 356.195312 597.136719 356.667969 C 597.929688 357.855469 602.59375 359.199219 603.148438 358.332031 C 603.386719 357.933594 604.890625 357.777344 606.550781 357.933594 C 610.269531 358.25 613.035156 356.589844 613.035156 353.902344 C 613.035156 352.792969 613.828125 351.210938 614.777344 350.5 C 616.753906 348.839844 616.28125 346.542969 613.828125 345.910156 C 612.957031 345.675781 611.929688 344.328125 611.453125 342.828125 C 610.503906 339.898438 609.476562 339.425781 604.574219 339.503906 C 602.359375 339.582031 601.410156 339.820312 601.726562 340.453125 C 601.960938 340.929688 601.726562 340.847656 601.09375 340.296875 C 599.828125 339.109375 598.246094 339.03125 597.613281 340.214844 Z M 608.605469 345.042969 C 612.484375 350.578125 606.3125 357.300781 601.328125 352.953125 C 598.878906 350.894531 598.640625 348.757812 600.378906 345.832031 C 601.644531 343.777344 602.4375 343.300781 604.652344 343.300781 C 606.628906 343.300781 607.738281 343.855469 608.605469 345.042969 Z M 608.605469 345.042969 " fill-opacity="1" fill-rule="nonzero"/><path fill="#ffffff" d="M 187.46875 354.136719 C 186.835938 354.375 185.492188 355.324219 184.542969 356.195312 C 182.804688 357.699219 182.722656 358.488281 182.722656 367.824219 C 182.722656 381.824219 182.089844 381.269531 196.960938 381.269531 C 211.753906 381.269531 211.199219 381.824219 211.199219 368.140625 C 211.199219 356.828125 210.566406 355.402344 204.871094 354.296875 C 200.996094 353.585938 189.367188 353.425781 187.46875 354.136719 Z M 207.246094 359.042969 C 208.351562 361.257812 208.273438 375.96875 207.085938 377.15625 C 206.453125 377.789062 203.054688 378.105469 196.960938 378.105469 C 190.871094 378.105469 187.46875 377.789062 186.835938 377.15625 C 186.203125 376.523438 185.886719 373.28125 185.886719 367.664062 C 185.886719 360.464844 186.125 359.121094 187.3125 358.410156 C 188.023438 357.933594 192.613281 357.539062 197.515625 357.539062 C 205.503906 357.539062 206.453125 357.699219 207.246094 359.042969 Z M 207.246094 359.042969 " fill-opacity="1" fill-rule="nonzero"/><path fill="#ffffff" d="M 189.367188 361.730469 C 188.578125 363.789062 189.449219 371.222656 190.476562 371.621094 C 191.1875 371.855469 191.425781 370.589844 191.425781 367.109375 C 191.425781 363.3125 191.664062 362.285156 192.613281 362.285156 C 193.5625 362.285156 193.796875 363.3125 193.796875 366.636719 L 193.796875 370.988281 L 204.160156 370.988281 L 203.921875 366.003906 L 203.6875 361.097656 L 196.726562 360.863281 C 191.347656 360.703125 189.683594 360.863281 189.367188 361.730469 Z M 189.367188 361.730469 " fill-opacity="1" fill-rule="nonzero"/><path fill="#ffffff" d="M 232.953125 387.757812 C 230.5 389.179688 229.472656 390.921875 229.394531 393.6875 C 229.394531 398.988281 235.484375 401.363281 239.28125 397.484375 C 241.734375 395.113281 241.8125 392.265625 239.519531 389.65625 C 237.304688 387.28125 235.011719 386.570312 232.953125 387.757812 Z M 232.953125 387.757812 " fill-opacity="1" fill-rule="nonzero"/><path fill="#ffffff" d="M 596.742188 434.664062 C 595.160156 437.117188 595.398438 452.222656 597.136719 454.28125 C 598.007812 455.386719 599.828125 455.625 607.816406 455.625 C 614.300781 455.625 617.78125 455.308594 618.414062 454.675781 C 619.046875 454.042969 619.363281 450.640625 619.363281 444.550781 C 619.363281 432.449219 619.601562 432.6875 607.261719 432.6875 C 598.324219 432.6875 598.007812 432.765625 596.742188 434.664062 Z M 615.410156 436.640625 C 616.992188 437.589844 617.625 450.324219 616.199219 452.066406 C 614.933594 453.570312 601.171875 453.726562 599.746094 452.304688 C 598.71875 451.273438 598.402344 437.351562 599.351562 436.402344 C 600.144531 435.535156 614.066406 435.769531 615.410156 436.640625 Z M 615.410156 436.640625 " fill-opacity="1" fill-rule="nonzero"/><path fill="#ffffff" d="M 335.3125 467.726562 C 329.617188 480.382812 329.140625 479.117188 339.34375 479.277344 C 344.25 479.355469 348.046875 479.117188 348.046875 478.722656 C 348.046875 478.328125 346.304688 474.292969 344.089844 469.785156 C 341.957031 465.277344 340.136719 461.082031 340.136719 460.53125 C 340.136719 458.078125 338.710938 460.214844 335.3125 467.726562 Z M 335.3125 467.726562 " fill-opacity="1" fill-rule="nonzero"/><path fill="#ffffff" d="M 548.964844 464.011719 C 548.488281 465.277344 546.828125 469.074219 545.324219 472.472656 C 543.824219 475.875 542.636719 478.800781 542.636719 478.960938 C 542.636719 479.195312 545.878906 479.355469 549.753906 479.355469 C 553.710938 479.355469 556.875 479.195312 556.875 478.960938 C 556.875 478.40625 550.46875 462.429688 550.070312 462.03125 C 549.914062 461.875 549.4375 462.746094 548.964844 464.011719 Z M 548.964844 464.011719 " fill-opacity="1" fill-rule="nonzero"/><path fill="#ffffff" d="M 594.84375 559.644531 L 594.84375 571.984375 L 604.96875 571.746094 L 615.015625 571.507812 L 615.015625 547.777344 L 604.96875 547.539062 L 594.84375 547.304688 Z M 594.84375 559.644531 " fill-opacity="1" fill-rule="nonzero"/></svg>