<?xml version="1.0" standalone="no"?>
<!DOCTYPE svg PUBLIC "-//W3C//DTD SVG 20010904//EN"
 "http://www.w3.org/TR/2001/REC-SVG-20010904/DTD/svg10.dtd">
<svg version="1.0" xmlns="http://www.w3.org/2000/svg"
 width="1024.000000pt" height="1024.000000pt" viewBox="0 0 1024.000000 1024.000000"
 preserveAspectRatio="xMidYMid meet">
<metadata>
Created by potrace 1.16, written by Peter Selinger 2001-2019
</metadata>
<g transform="translate(0.000000,1024.000000) scale(0.100000,-0.100000)"
fill="#000000" stroke="none">
<path d="M0 5120 l0 -5120 5120 0 5120 0 0 5120 0 5120 -5120 0 -5120 0 0
-5120z m6490 50 l0 -300 24 0 c13 0 27 -7 30 -16 3 -8 2 -13 -3 -10 -5 3 -29
-5 -53 -19 -51 -29 -76 -31 -93 -8 -11 15 -17 15 -39 5 -44 -20 -109 -15 -147
11 -39 27 -82 85 -75 104 3 7 1 13 -3 13 -5 0 -6 12 -2 28 4 15 3 34 -2 43 -8
12 -4 34 13 79 20 53 31 67 68 91 60 38 102 45 157 26 25 -8 47 -11 50 -7 2 4
2 25 0 46 -2 21 -4 56 -4 77 -1 34 -5 40 -31 50 -16 6 -30 14 -29 17 0 5 116
65 132 69 4 0 7 -134 7 -299z m-2225 162 c0 -70 2 -139 4 -154 l3 -28 27 29
c55 59 162 66 200 13 16 -23 20 -51 25 -177 5 -125 9 -152 23 -162 9 -7 20
-13 25 -13 4 0 8 -4 8 -10 0 -6 -40 -10 -100 -10 -102 0 -126 10 -67 26 l32
10 -1 131 c0 162 -10 183 -80 183 -37 0 -51 -5 -72 -27 -27 -28 -27 -29 -24
-160 l3 -132 29 -6 c66 -15 38 -25 -64 -24 -58 0 -106 5 -106 10 0 9 5 11 33
13 30 2 32 23 29 270 -2 240 -4 252 -23 269 -12 9 -31 17 -43 18 -11 0 0 6 26
13 25 7 57 20 70 29 13 9 28 16 33 16 6 1 10 -48 10 -127z m-165 -2 c0 -64 -3
-80 -15 -80 -8 0 -15 9 -15 20 0 23 -19 69 -38 93 -12 13 -31 17 -84 17 l-68
0 0 -237 c0 -263 4 -282 58 -298 62 -18 31 -25 -109 -25 -91 0 -138 4 -134 10
3 6 13 10 22 10 9 0 27 10 40 22 23 21 23 23 23 270 l0 248 -70 0 -70 0 -25
-40 c-14 -22 -25 -49 -25 -60 0 -11 -7 -20 -15 -20 -17 0 -18 17 -9 98 l7 52
263 0 264 0 0 -80z m799 -128 c26 -19 55 -70 65 -114 l6 -28 -109 0 c-60 0
-116 -3 -125 -6 -25 -10 -21 -85 6 -120 31 -40 48 -52 83 -58 36 -7 108 9 113
23 5 14 22 14 22 2 0 -16 -43 -57 -79 -76 -25 -12 -50 -16 -92 -13 -103 7
-160 75 -167 198 -4 86 23 141 93 189 46 30 55 33 104 28 30 -3 66 -14 80 -25z
m631 2 c40 -34 60 -74 60 -118 l0 -36 -110 7 c-123 7 -140 1 -140 -51 0 -48
34 -95 87 -118 41 -18 53 -19 96 -9 28 6 56 19 63 29 11 14 13 14 14 2 0 -8
-12 -28 -26 -44 -71 -76 -197 -75 -267 4 -50 54 -64 106 -50 184 20 116 82
175 185 176 47 0 62 -5 88 -26z m258 -47 c3 19 72 61 113 68 49 9 96 -16 115
-60 8 -19 14 -63 14 -98 0 -35 3 -98 6 -140 7 -72 8 -76 33 -79 14 -2 26 -7
26 -13 0 -6 -43 -11 -102 -13 -62 -2 -103 1 -103 7 0 5 10 11 23 13 20 3 23
10 29 98 9 108 3 175 -18 208 -20 30 -79 30 -117 -1 -27 -22 -27 -23 -29 -152
-2 -71 1 -136 5 -142 5 -7 19 -13 33 -13 13 0 24 -5 24 -11 0 -7 -33 -9 -95
-8 -52 2 -95 6 -95 11 0 4 11 8 25 8 31 0 31 1 25 232 -2 66 -6 85 -16 81 -7
-3 -11 2 -10 12 1 9 25 26 52 39 l49 23 6 -41 c3 -23 7 -35 7 -29z"/>
<path d="M6276 5175 c-14 -11 -23 -12 -33 -4 -7 6 -13 10 -14 8 -9 -53 -8
-215 1 -243 34 -103 152 -99 178 6 13 56 15 160 2 192 -17 47 -95 71 -134 41z"/>
<path d="M4738 5183 c-30 -33 -41 -68 -24 -82 6 -5 46 -11 89 -13 l79 -3 -6
40 c-12 79 -88 111 -138 58z"/>
<path d="M5371 5197 c-5 -5 -7 -16 -4 -25 4 -8 2 -13 -3 -9 -5 3 -8 -11 -6
-34 l4 -39 74 0 c61 0 74 3 74 16 0 26 -31 84 -51 95 -22 11 -75 9 -88 -4z"/>
</g>
</svg>
